<svg width="164" height="164" viewBox="0 0 164 164" fill="none" xmlns="http://www.w3.org/2000/svg">
<g clip-path="url(#clip0_3038_1244)">
<rect width="164" height="164" rx="82" fill="#BDEBD4"/>
<path d="M56.7648 90.0754C51.4009 89.478 45.2345 86.0997 42.7778 76.0001C39.459 62.356 47.5004 63.2451 52.9555 65.8177C52.4432 63.6238 51.4994 57.2173 51.4994 50.9998C51.4994 49.434 51.7697 47.9757 52.2133 46.659C47.5283 42.6159 51.3556 35.7418 53.8617 32.8035V30.91C54.2926 26.8709 63.0132 25.4407 67.3197 25.2303C73.7795 21.191 81.8545 23.5473 85.0844 25.2303C93.2665 23.7158 101.054 32.1718 103.925 36.5897C103.925 35.5798 103.207 33.6449 102.848 32.8035C105.907 34.3973 108.941 40.2892 110.791 44.7703C112.498 46.4192 113.999 48.706 113.999 51.9998V64.873C119.08 63.2804 124.632 64.2625 121.777 76.0001C119.32 86.0997 113.154 89.478 107.79 90.0754C107.285 94.0001 105.905 97.6345 103.856 100.785H104.084C120.86 104.73 129.824 114.261 120 132.122C120 132.122 143 140.622 146 144.622C149 150.056 150.85 155.906 152.5 165.056H11.5C12.8646 157.146 15.5 146.622 17.5 144.622C22.5 139.622 41.5 133.056 41.5 133.056C35.6745 122.7 32.6771 103.953 59.9649 99.9426L60.1484 99.9001C58.4024 96.9608 57.2228 93.6377 56.7648 90.0754Z" stroke="#6D290E" stroke-width="3"/>
<path fill-rule="evenodd" clip-rule="evenodd" d="M114.719 71.85C115.754 70.7215 116.925 69.7029 117.693 69.1057L118.307 69.8951C117.575 70.4646 116.446 71.4459 115.456 72.5258C114.961 73.0655 114.508 73.6219 114.157 74.1573C113.962 74.4554 113.804 74.738 113.688 75.0004H116.5V76.0004H112.39L112.51 75.4023C112.628 74.8125 112.935 74.1984 113.321 73.6091C113.711 73.0143 114.201 72.4144 114.719 71.85Z" fill="#B86B5E"/>
<path fill-rule="evenodd" clip-rule="evenodd" d="M49.0972 72.1966C48.2822 71.0882 47.2998 70.0073 46.6464 69.3539L47.3536 68.6468C48.0335 69.3268 49.0511 70.4459 49.9028 71.6042C50.3285 72.1831 50.7206 72.7824 51.0083 73.349C51.2897 73.9031 51.5 74.4806 51.5 75.0004V75.424L48.0822 75.9936L47.9178 75.0072L50.4353 74.5876C50.3741 74.3647 50.2689 74.1014 50.1167 73.8018C49.8628 73.3017 49.5049 72.751 49.0972 72.1966Z" fill="#B86B5E"/>
<path fill-rule="evenodd" clip-rule="evenodd" d="M83.3602 101.56C81.8955 101.406 80.5562 100.881 79.7572 100.437L80.2428 99.5633C80.9438 99.9527 82.1545 100.428 83.4648 100.566C84.7736 100.703 86.12 100.5 87.1799 99.6163L87.8201 100.384C86.48 101.501 84.8264 101.714 83.3602 101.56Z" fill="#B86B5E"/>
<path fill-rule="evenodd" clip-rule="evenodd" d="M80.9398 82.704C81.1691 80.2441 81.4178 77.3811 81.5005 75.4787L82.4995 75.5221C82.4156 77.453 82.1645 80.34 81.9355 82.7968C81.8562 83.6472 81.7794 84.4485 81.7129 85.1422C81.6832 85.4515 81.6556 85.7395 81.6308 86.0009C81.5904 86.4253 81.5573 86.7791 81.5344 87.0419C81.5229 87.1735 81.5141 87.2806 81.5081 87.3617C81.5052 87.4023 81.5031 87.4349 81.5017 87.46L81.5008 87.4791C81.5049 87.4887 81.5136 87.5063 81.5305 87.5321C81.5712 87.5944 81.6427 87.6769 81.75 87.7666C81.9642 87.9455 82.2849 88.1227 82.6785 88.2168C83.4391 88.3986 84.5134 88.2798 85.6464 87.1468L86.3536 87.8539C84.9866 89.2209 83.5606 89.4558 82.446 89.1894C81.9021 89.0593 81.4415 88.8119 81.1088 88.534C80.9428 88.3952 80.7994 88.2411 80.6938 88.0798C80.5938 87.927 80.4998 87.725 80.5 87.5C80.5001 87.344 80.5565 86.7338 80.6352 85.9062C80.6586 85.6612 80.6842 85.3936 80.7116 85.1073C80.7135 85.0882 80.7153 85.0689 80.7172 85.0496L80.7176 85.0449C80.7841 84.3518 80.8607 83.5531 80.9398 82.704Z" fill="#B86B5E"/>
<path d="M82.2773 112.5C77.0742 112.5 72.2126 110.95 68.1474 108.274C68.1361 110.542 67.8322 112.875 67.3806 115.076L67.3804 115.077C75.5543 115.577 90.2685 116.365 94.8584 109.217C91.1305 111.311 86.835 112.5 82.2773 112.5Z" fill="#3F232D"/>
<path d="M20 143C17.2 144.2 14.1667 157.167 13 163H150C152 157.4 146.5 147 143.5 143L98.8053 123.981C97.0051 121.726 95.8819 113.895 95.5726 108.801C95.3448 108.939 95.1146 109.073 94.8822 109.204C94.8743 109.209 94.8663 109.213 94.8584 109.217C90.2685 116.365 75.5543 115.577 67.3804 115.077L67.3806 115.076C66.66 118.587 65.5632 121.762 64.6789 123.798C50.3383 130.064 22.6814 141.851 20 143Z" fill="#EFC7AB"/>
<path fill-rule="evenodd" clip-rule="evenodd" d="M112.5 57.4506C112.5 40.744 98.9566 27.2006 82.25 27.2006C65.5434 27.2006 52 40.744 52 57.4506L52.9861 65.8327C47.5306 63.249 39.4528 62.3309 42.7778 76.0005C45.2345 86.1002 51.4009 89.4784 56.7648 90.0759C57.7476 97.7197 62.0525 104.262 68.1474 108.274C72.2126 110.95 77.0742 112.5 82.2773 112.5C86.835 112.5 91.1305 111.311 94.8584 109.217C94.8663 109.213 94.8743 109.209 94.8822 109.204C95.1146 109.073 95.3448 108.939 95.5726 108.801C102.107 104.85 106.763 98.0641 107.79 90.0759C113.154 89.4784 119.32 86.1002 121.777 76.0005C125.114 62.2825 116.967 63.2557 111.511 65.8603L112.5 57.4506ZM114.719 71.85C115.754 70.7215 116.925 69.7029 117.693 69.1057L118.307 69.8951C117.575 70.4646 116.446 71.4459 115.456 72.5258C114.961 73.0655 114.508 73.6219 114.157 74.1573C113.962 74.4554 113.804 74.738 113.688 75.0004H116.5V76.0004H112.39L112.51 75.4023C112.628 74.8125 112.935 74.1984 113.321 73.6091C113.711 73.0143 114.201 72.4144 114.719 71.85ZM49.0972 72.1966C48.2822 71.0882 47.2998 70.0073 46.6464 69.3539L47.3536 68.6468C48.0335 69.3268 49.0511 70.4459 49.9028 71.6042C50.3285 72.1831 50.7206 72.7824 51.0083 73.349C51.2897 73.9031 51.5 74.4806 51.5 75.0004V75.424L48.0822 75.9936L47.9178 75.0072L50.4353 74.5876C50.3741 74.3647 50.2689 74.1014 50.1167 73.8018C49.8628 73.3017 49.5049 72.751 49.0972 72.1966ZM83.3602 101.56C81.8955 101.406 80.5562 100.881 79.7572 100.437L80.2428 99.5633C80.9438 99.9527 82.1545 100.428 83.4648 100.566C84.7736 100.703 86.12 100.5 87.1799 99.6163L87.8201 100.384C86.48 101.501 84.8264 101.714 83.3602 101.56ZM80.9398 82.704C81.1691 80.2441 81.4178 77.3811 81.5005 75.4787L82.4995 75.5221C82.4156 77.453 82.1645 80.34 81.9355 82.7968C81.8562 83.6472 81.7794 84.4485 81.7129 85.1422C81.6832 85.4515 81.6556 85.7395 81.6308 86.0009C81.5904 86.4253 81.5573 86.7791 81.5344 87.0419C81.5229 87.1735 81.5141 87.2806 81.5081 87.3617C81.5052 87.4023 81.5031 87.4349 81.5017 87.46L81.5008 87.4791C81.5049 87.4887 81.5136 87.5063 81.5305 87.5321C81.5712 87.5944 81.6427 87.6769 81.75 87.7666C81.9642 87.9455 82.2849 88.1227 82.6785 88.2168C83.4391 88.3986 84.5134 88.2798 85.6464 87.1468L86.3536 87.8539C84.9866 89.2209 83.5606 89.4558 82.446 89.1894C81.9021 89.0593 81.4415 88.8119 81.1088 88.534C80.9428 88.3952 80.7994 88.2411 80.6938 88.0798C80.5938 87.927 80.4998 87.725 80.5 87.5C80.5001 87.344 80.5565 86.7338 80.6352 85.9062C80.6586 85.6612 80.6842 85.3936 80.7116 85.1073L80.7172 85.0496L80.7176 85.0449C80.7841 84.3518 80.8607 83.5531 80.9398 82.704Z" fill="#EFC7AB"/>
<path fill-rule="evenodd" clip-rule="evenodd" d="M83.5963 96.697C80.2371 96.7055 76.8227 95.7865 74.6969 94.9362L75.0682 94.0077C77.1091 94.8241 80.3947 95.7051 83.5938 95.697C86.8016 95.6888 89.7966 94.7922 91.462 92.2016L92.3031 92.7423C90.3686 95.7517 86.9468 96.6884 83.5963 96.697Z" fill="#B86B5E"/>
<path d="M73.5 72.7006C73.5 74.9097 72.6046 76.7006 71.5 76.7006C70.3954 76.7006 69.5 74.9097 69.5 72.7006C69.5 70.4915 70.3954 68.7006 71.5 68.7006C72.6046 68.7006 73.5 70.4915 73.5 72.7006Z" fill="#3F232D"/>
<path d="M96.5 72.7006C96.5 74.9097 95.6046 76.7006 94.5 76.7006C93.3954 76.7006 92.5 74.9097 92.5 72.7006C92.5 70.4915 93.3954 68.7006 94.5 68.7006C95.6046 68.7006 96.5 70.4915 96.5 72.7006Z" fill="#3F232D"/>
<path d="M89.4037 64.0449C88.6738 64.1417 88 63.5801 88 62.8296V61.7219C88 61.4253 88.2146 61.1727 88.5036 61.1384C92.3568 60.6812 95.3081 61.5029 95.3081 61.5029C96.5868 61.7629 100.085 63.1573 101.927 65.4879C102.15 65.7704 101.821 66.1177 101.5 65.961C99.5226 64.995 95.0725 63.2929 89.4037 64.0449Z" fill="#3F3F3F"/>
<path d="M74.5963 64.0449C75.3262 64.1417 76 63.5801 76 62.8296V61.7219C76 61.4253 75.7854 61.1727 75.4964 61.1384C71.6432 60.6812 68.6919 61.5029 68.6919 61.5029C67.4132 61.7629 63.9153 63.1573 62.0732 65.4879C61.85 65.7704 62.179 66.1177 62.4999 65.961C64.4774 64.995 68.9275 63.2929 74.5963 64.0449Z" fill="#3F3F3F"/>
<path fill-rule="evenodd" clip-rule="evenodd" d="M67.3197 25.2308C73.7795 21.1915 81.8545 23.5478 85.0844 25.2308C93.2665 23.7162 101.054 32.1722 103.925 36.5902C103.925 35.5803 103.207 33.6454 102.848 32.804C105.907 34.3978 108.941 40.2896 110.791 44.7708C112.498 46.4197 113.999 48.7065 113.999 52.0003V65.0003C112.833 65.5011 110.5 68.8008 110.5 72.0003V74.5003H108.5V62.5003C107 60.3337 103.001 57.5001 103 52.0003C103 52.0003 102.87 50.7127 102.416 49.1829L101.234 47.9505C93.9128 42.3966 79.8808 46.8987 73.7797 49.8441C68.5962 51.1101 64.8211 50.5233 62.2094 49.2796C61.7579 50.4654 61.6443 51.7035 61.4994 52.5003C62.2993 57.3002 59.9994 59.8337 58.4994 62.0003V74.5003H56.4994V72.0003C56.4994 68.8003 54.1659 66.5003 52.9994 66.0003C52.4994 64.0003 51.4994 57.4002 51.4994 51.0003C51.4994 49.4344 51.7697 47.9762 52.2133 46.6595C47.5283 42.6164 51.3556 35.7423 53.8617 32.804V30.9105C54.2926 26.8714 63.0132 25.4412 67.3197 25.2308ZM52.5394 45.7894C52.4366 45.9875 52.3638 46.1883 52.3129 46.3782C52.385 46.1786 52.4598 45.982 52.5394 45.7894Z" fill="#5C4C42"/>
<path d="M59.9649 99.9431C32.6771 103.954 35.6745 122.701 41.5 133.057C41.5 133.057 22.5 139.623 17.5 144.623C15.5 146.623 12.8646 157.147 11.5 165.057H152.5C150.85 155.907 149 150.057 146 144.623C143 140.623 120 132.123 120 132.123C129.824 114.261 120.86 104.73 104.084 100.786C101.94 104.204 99.0172 107.075 95.5726 109.157C95.8929 114.433 97.0861 122.643 99 124.557L103.379 126.407C94.558 143.598 68.0797 140.387 59.5 126.407C59.5 126.407 63.0974 124.845 64.6789 124.154C65.2633 122.809 66.695 118.326 66.695 118.326C67.0376 117.067 67.3453 115.722 67.5915 114.342L67.8121 112.958C67.8284 112.843 67.8443 112.728 67.8595 112.613C68.0354 111.289 68.1408 109.949 68.1474 108.631C64.7923 106.422 61.9796 103.447 59.9649 99.9431Z" fill="#EFE6E0"/>
<path fill-rule="evenodd" clip-rule="evenodd" d="M61.9239 108.244C62.1891 107.926 62.662 107.883 62.9802 108.148L67.8662 112.22L67.5915 113.943L62.0199 109.3C61.7017 109.035 61.6587 108.562 61.9239 108.244ZM59.1974 116.64C56.7478 116.26 54.4411 116.31 53.0877 116.469C52.6763 116.518 52.3036 116.223 52.2552 115.812C52.2068 115.401 52.5011 115.028 52.9124 114.979C54.3924 114.805 56.8357 114.755 59.4277 115.158C61.9025 115.543 64.5883 116.351 66.695 117.927C66.7874 117.996 66.605 117.855 66.695 117.927L66.2471 119.431C66.1711 119.403 66.0982 119.363 66.0315 119.31C64.1761 117.826 61.6559 117.022 59.1974 116.64ZM59.5723 130.608C59.9125 130.372 60.3798 130.456 60.6161 130.797C64.6214 136.564 78.1465 147.013 99.8151 141.497C100.216 141.395 100.625 141.638 100.727 142.039C100.829 142.441 100.587 142.849 100.185 142.951C77.8537 148.635 63.712 137.884 59.384 131.652C59.1478 131.312 59.2321 130.845 59.5723 130.608ZM102.57 145.736C102.839 146.051 102.803 146.524 102.488 146.794C98.1059 150.55 92.779 151.66 87.9578 151.549C83.1427 151.438 78.7661 150.109 76.1829 148.904C75.8076 148.729 75.6453 148.282 75.8204 147.907C75.9956 147.532 76.4419 147.369 76.8172 147.545C79.234 148.672 83.4074 149.944 87.9924 150.049C92.5711 150.155 97.4943 149.099 101.512 145.655C101.826 145.385 102.3 145.422 102.57 145.736Z" fill="#A1A1AA" fill-opacity="0.6"/>
<path d="M59.7502 146.576C59.3982 146.336 59.167 145.932 59.167 145.474C59.167 144.737 59.7639 144.14 60.5003 144.14C61.2367 144.14 61.8337 144.737 61.8337 145.474C61.8337 145.932 61.6024 146.336 61.2502 146.576V164.974C61.2502 165.388 60.9145 165.724 60.5002 165.724C60.086 165.724 59.7502 165.388 59.7502 164.974V146.576Z" fill="white"/>
<path d="M102.75 146.576C102.398 146.336 102.167 145.932 102.167 145.474C102.167 144.737 102.764 144.14 103.5 144.14C104.237 144.14 104.834 144.737 104.834 145.474C104.834 145.932 104.602 146.336 104.25 146.576V164.974C104.25 165.388 103.914 165.724 103.5 165.724C103.086 165.724 102.75 165.388 102.75 164.974V146.576Z" fill="white"/>
<path fill-rule="evenodd" clip-rule="evenodd" d="M74.6009 66.8596C71.078 65.8932 67.4289 65.5127 63.7858 65.6949L62.2348 65.7724C60.7252 65.8479 59.2243 66.0478 57.7475 66.37L53 67.4058V72.0546L53.2643 72.2925C54.1983 73.1333 54.7385 73.7599 55.4175 74.7685L55.6548 75.1211H57.2963L57.826 78.3875C58.5161 82.643 62.1236 85.8137 66.4325 85.9518L67.7562 85.9942C73.4053 86.1753 78.2746 82.0715 79.0656 76.4899H80.3764V75.6914C80.3764 74.5935 80.6137 73.7543 81.0211 73.1968C81.4066 72.6693 82.0004 72.3147 82.9258 72.2684L83 72.2647L83.0742 72.2684C83.9996 72.3147 84.5934 72.6693 84.9789 73.1968C85.3863 73.7543 85.6236 74.5935 85.6236 75.6914V76.4899H86.8203C87.6113 82.0715 92.4806 86.1753 98.1297 85.9942L99.4534 85.9518C103.762 85.8137 107.37 82.643 108.06 78.3875L108.59 75.1211H110.345L110.583 74.7685C111.262 73.7599 111.802 73.1333 112.736 72.2925L113 72.0546V67.4058L108.252 66.37C106.776 66.0478 105.275 65.8479 103.765 65.7724L102.214 65.6949C98.5711 65.5127 94.922 65.8932 91.3991 66.8596C89.0407 67.5065 86.7587 68.0856 83 68.7411C79.2413 68.0856 76.9593 67.5065 74.6009 66.8596ZM107.569 74.29L107.015 72.8547C105.98 70.1724 103.604 68.2369 100.828 68.0989C98.1782 67.9671 95.8006 68.1343 93.093 68.6905C90.0757 69.3103 87.9953 72.0554 87.8051 75.2172L87.9332 76.2079C88.5886 81.276 92.9855 85.0178 98.0931 84.8541L99.4168 84.8117C103.18 84.6911 106.331 81.9218 106.934 78.2049L107.569 74.29ZM78.1471 74.7044C77.7752 71.7626 75.7599 69.2765 72.907 68.6905C70.1994 68.1343 67.8218 67.9671 65.1721 68.0989C62.3965 68.2369 60.0205 70.1724 58.9852 72.8547L58.3509 74.4981L58.952 78.2049C59.5547 81.9218 62.7056 84.6911 66.4691 84.8117L67.7928 84.8541C72.9004 85.0178 77.2974 81.276 77.9527 76.2079L78.1471 74.7044Z" fill="black"/>
</g>
<defs>
<clipPath id="clip0_3038_1244">
<rect width="164" height="164" rx="82" fill="white"/>
</clipPath>
</defs>
</svg>
