<svg width="164" height="164" viewBox="0 0 164 164" fill="none" xmlns="http://www.w3.org/2000/svg">
<g clip-path="url(#clip0_3039_1876)">
<rect width="164" height="164" rx="82" fill="#F2CC8F"/>
<path d="M52.0112 57.5455L52.0102 57.5396C52.0099 57.5255 52.0096 57.5108 52.0092 57.4966C52.009 57.5053 52.0085 57.5144 52.0083 57.523L52.0005 57.4517C52.0005 57.3365 52.0031 57.2209 52.0044 57.106C52.006 57.2537 52.0075 57.4005 52.0112 57.5455Z" fill="#EFC7AB"/>
<path d="M68.0869 109.984C68.0498 110.556 67.9966 111.13 67.9297 111.701L67.8193 112.554C67.8994 111.986 67.966 111.414 68.0186 110.842L68.0869 109.984Z" fill="#EFC7AB"/>
<path fill-rule="evenodd" clip-rule="evenodd" d="M68.1475 108.275L68.1299 109.127C68.1402 108.842 68.1461 108.559 68.1475 108.275Z" fill="#B86B5E"/>
<path d="M52.0092 57.4966C52.0223 58.038 52.0516 58.5592 52.0947 59.0558L52 58.2502C52 57.9982 52.0031 57.7472 52.0092 57.4966Z" fill="#DEB9A0"/>
<path d="M67.3813 115.077C67.1848 116.034 66.9578 116.966 66.7173 117.857L66.6714 117.801C66.3633 117.47 65.8505 117.368 65.4385 117.625C63.8212 118.634 62.0239 120.188 62.4717 123.428C62.3998 123.757 62.3345 124.087 62.2793 124.418C61.526 124.746 60.7397 125.089 59.9268 125.441C48.2393 130.514 30.9116 137.88 23.0352 141.229L22.6611 141.387C20.8317 142.165 19.5689 142.702 19.0859 142.909C16.286 144.11 13.2526 158.076 12.0859 163.909H151.086C153.086 158.309 147.586 146.909 144.586 142.909L105.046 126.147L102.553 123.478L102.49 122.902L102.089 122.981L101.982 122.867C101.73 120.986 99.6243 117.281 96.5 116.5C96.0935 114.182 95.8026 111.926 95.6401 109.788L95.5727 108.802L96.1801 108.423C102.395 104.426 106.795 97.8148 107.79 90.0767C113.154 89.4791 119.321 86.1001 121.778 76.0015C125.094 62.366 117.065 63.2469 111.61 65.816L112.5 58.2502L112.518 58.064C113.583 55.6101 112.668 51.3977 111.843 46.2061C111.54 44.3028 110.55 42.6338 109.184 41.1846C109.724 40.4021 110.511 39.5737 111 39.1114C109.888 39.1114 108.687 39.8145 108.17 40.2051C108.12 40.1607 108.069 40.1172 108.018 40.0733C104.183 32.8653 99.419 33.2979 95.5997 29.9141C92.5197 27.1851 90.1451 26.8809 89.3428 27.0704C87.8988 23.6591 81.6428 22.5223 82.1241 23.0909C82.509 23.546 82.9256 24.7968 83.086 25.3653C81.1607 24.2282 71.5354 24.6964 64.3165 29.8135C61.7182 31.6554 60.1195 33.9403 59.1798 35.9502C57.7491 36.9665 56.5615 38.0513 55.7862 39.1582C52.4152 40.0848 51.8604 51.5095 52.0044 57.106M67.3813 115.077L67.5434 114.245C67.9041 112.293 68.138 110.26 68.1479 108.276L67.5815 107.892C61.7873 103.854 57.7175 97.4811 56.7651 90.0767C51.4015 89.4792 45.2356 86.1002 42.7788 76.0015C39.4739 62.4146 47.4336 63.24 52.8872 65.7877L52.0947 59.0558M67.3813 115.077L67.3809 115.076M52.0092 57.4966C52.0096 57.5108 52.0099 57.5255 52.0102 57.5396L52.0112 57.5455C52.0075 57.4005 52.006 57.2537 52.0044 57.106M52.0092 57.4966C52.009 57.5053 52.0085 57.5144 52.0083 57.523L52.0005 57.4517C52.0005 57.3365 52.0031 57.2209 52.0044 57.106M52.0092 57.4966C52.0223 58.038 52.0516 58.5592 52.0947 59.0558M52.0092 57.4966C52.0031 57.7472 52 57.9982 52 58.2502L52.0947 59.0558M96.1797 108.422L95.5723 108.801L95.6396 109.787M67.3809 115.076C67.8325 112.875 68.1362 110.543 68.1475 108.275M67.3809 115.076C67.8265 112.89 68.1363 110.525 68.1475 108.275M68.1475 108.275L68.1299 109.127C68.1402 108.842 68.1461 108.559 68.1475 108.275ZM68.1475 108.275L67.5811 107.891M68.0869 109.984C68.0498 110.556 67.9966 111.13 67.9297 111.701L67.8193 112.554C67.8994 111.986 67.966 111.414 68.0186 110.842L68.0869 109.984Z" stroke="#6D290E" stroke-width="3"/>
<path fill-rule="evenodd" clip-rule="evenodd" d="M70.687 42.3248C74.0508 42.3998 77.5401 44.5033 80.0005 46.2847L80.0639 45.8814C80.2726 46.03 80.4859 46.1816 80.7007 46.3384C103.421 41.1067 103.13 50.0639 106.814 52.7672C109.17 57.5073 109.992 63.0363 109.991 67.0005H110.991L111.5 66.7505L111.61 65.816C117.065 63.2469 125.094 62.366 121.778 76.0015C119.321 86.1001 113.154 89.4791 107.79 90.0767C106.795 97.8148 102.395 104.426 96.1801 108.423L95.5727 108.802L95.6401 109.788C95.8026 111.926 96.093 114.412 96.4995 116.73V118.583C95.1503 122.526 92.624 125.964 89.2602 128.428L88.1841 129.217C87.8968 129.428 87.6298 129.667 87.3891 129.929L82.5005 135L78.0005 128.428L67.2514 119.259L66.8882 118.168C66.8492 118.051 66.7896 117.947 66.7173 117.857C66.9578 116.966 67.1848 116.034 67.3813 115.077L67.5434 114.245C67.9041 112.293 68.138 110.26 68.1479 108.276L67.5815 107.892C61.7873 103.854 57.7175 97.4811 56.7651 90.0767C51.4015 89.4792 45.2356 86.1002 42.7788 76.0015C39.4739 62.4146 47.4336 63.24 52.8872 65.7877L53.0005 66.7505L53.5005 67.0005H54.5005C54.3881 64.9028 54.4885 62.3786 54.9243 59.7672L55.0161 59.2437L55.7866 58.3707L60.3911 48.2711C60.6261 48.0339 60.857 47.8028 61.0844 47.5787C61.3663 48.9274 61.7402 50.0909 62.0005 50.9517C62.9989 47.5309 64.3561 45.3288 65.9048 44.0054C68.3164 43.1251 71.1967 42.7873 74.6255 43.2066C73.3395 42.6961 72.0034 42.3549 70.687 42.3248ZM71.0512 59.0005C69.051 59.0008 63.5493 61.0005 63.0493 63.0005C62.5496 65.0004 64.0494 65.5005 65.0493 65.5005C66.0493 65.4996 67.5504 63.5831 71.0493 63.0005C72.5504 62.7506 73.5487 62.5299 73.5493 61.0005C73.5496 59.0009 72.0512 59.0005 71.0512 59.0005ZM92.9487 59.0005C91.9487 59.0005 90.4513 59.0009 90.4516 61.0005C90.4522 62.53 91.4502 62.7506 92.9516 63.0005C96.4508 63.5834 97.9517 65.5004 98.9516 65.5005C99.9515 65.5004 101.451 64.9999 100.952 63.0005C100.452 61.0005 94.9491 59.0009 92.9487 59.0005Z" fill="#EFC7AB"/>
<path d="M52.0112 57.5455L52.0102 57.5396C52.0099 57.5255 52.0096 57.5108 52.0092 57.4966C52.009 57.5053 52.0085 57.5144 52.0083 57.523L52.0005 57.4517C52.0005 57.3365 52.0031 57.2209 52.0044 57.106C52.006 57.2537 52.0075 57.4005 52.0112 57.5455Z" fill="#EFC7AB"/>
<path fill-rule="evenodd" clip-rule="evenodd" d="M80.9395 82.7041C81.1687 80.2442 81.4174 77.3812 81.5001 75.4788L82.4992 75.5222C82.4152 77.4531 82.1641 80.3401 81.9352 82.7969C81.8559 83.6473 81.7791 84.4486 81.7125 85.1423C81.6829 85.4516 81.6553 85.7396 81.6304 86.001C81.59 86.4254 81.557 86.7792 81.534 87.042C81.5225 87.1736 81.5137 87.2807 81.5078 87.3618C81.5048 87.4024 81.5027 87.435 81.5014 87.4601L81.5005 87.4792C81.5046 87.4888 81.5132 87.5064 81.5301 87.5322C81.5709 87.5945 81.6423 87.677 81.7497 87.7667C81.9638 87.9456 82.2845 88.1228 82.6782 88.2169C83.4388 88.3987 84.5131 88.2799 85.6461 87.1469L86.3532 87.854C84.9862 89.221 83.5602 89.4559 82.4457 89.1894C81.9017 89.0594 81.4411 88.812 81.1085 88.534C80.9424 88.3953 80.7991 88.2412 80.6935 88.0799C80.5934 87.9271 80.4995 87.7251 80.4997 87.5C80.4998 87.3441 80.5562 86.7338 80.6349 85.9063C80.6429 85.8223 80.6512 85.7356 80.6597 85.6464C80.6749 85.4873 80.6909 85.3203 80.7076 85.1461C80.7088 85.1333 80.71 85.1204 80.7113 85.1074C80.7131 85.0882 80.715 85.069 80.7168 85.0497L80.7173 85.045C80.7838 84.3519 80.8603 83.5532 80.9395 82.7041Z" fill="#B86B5E"/>
<path fill-rule="evenodd" clip-rule="evenodd" d="M83.5967 96.697C80.2375 96.7056 76.8231 95.7866 74.6973 94.9363L75.0687 94.0078C77.1095 94.8241 80.3951 95.7052 83.5942 95.6971C86.802 95.6889 89.797 94.7923 91.4624 92.2017L92.3036 92.7424C90.369 95.7518 86.9472 96.6885 83.5967 96.697Z" fill="#B86B5E"/>
<path d="M68.0869 109.984C68.0498 110.556 67.9966 111.13 67.9297 111.701L67.8193 112.554C67.8994 111.986 67.966 111.414 68.0186 110.842L68.0869 109.984Z" fill="#EFC7AB"/>
<path d="M82.2773 112.501C77.0744 112.5 72.2126 110.951 68.1475 108.275C68.1362 110.543 67.8325 112.875 67.3809 115.076L67.3813 115.077C75.5552 115.577 90.2685 116.365 94.8584 109.217C91.1306 111.311 86.8349 112.501 82.2773 112.501Z" fill="#3F232D"/>
<path d="M81.5001 75.4788C81.4174 77.3812 81.1687 80.2442 80.9395 82.7041C80.8603 83.5532 80.7838 84.3519 80.7173 85.045L80.7168 85.0497C80.715 85.069 80.7131 85.0882 80.7113 85.1074C80.71 85.1204 80.7088 85.1333 80.7076 85.1461C80.6909 85.3203 80.6749 85.4873 80.6597 85.6464C80.6512 85.7356 80.6429 85.8223 80.6349 85.9063C80.5562 86.7338 80.4998 87.3441 80.4997 87.5C80.4995 87.7251 80.5934 87.9271 80.6935 88.0799C80.7991 88.2412 80.9424 88.3953 81.1085 88.534C81.4411 88.812 81.9017 89.0594 82.4457 89.1894C83.5602 89.4559 84.9862 89.221 86.3532 87.854L85.6461 87.1469C84.5131 88.2799 83.4388 88.3987 82.6782 88.2169C82.2845 88.1228 81.9638 87.9456 81.7497 87.7667C81.6423 87.677 81.5709 87.5945 81.5301 87.5322C81.5132 87.5064 81.5046 87.4888 81.5005 87.4792L81.5014 87.4601C81.5027 87.435 81.5048 87.4024 81.5078 87.3618C81.5137 87.2807 81.5225 87.1736 81.534 87.042C81.557 86.7792 81.59 86.4254 81.6304 86.001C81.6553 85.7396 81.6829 85.4516 81.7125 85.1423L81.7207 85.0605C81.7854 84.3861 81.859 83.6139 81.9352 82.7969C82.1641 80.3401 82.4152 77.4531 82.4992 75.5222L81.5001 75.4788Z" fill="#B86B5E"/>
<path d="M46.6465 69.354C47.2999 70.0074 48.2827 71.0884 49.0977 72.1968C49.5053 72.7512 49.8633 73.3023 50.1172 73.8023C50.2692 74.1016 50.3744 74.3646 50.4355 74.5874L47.918 75.0074L48.082 75.9937L51.5 75.4243V75.0005C51.5 74.4808 51.2901 73.9032 51.0088 73.3491C50.721 72.7825 50.329 72.1829 49.9033 71.604C49.0516 70.4457 48.0335 69.3269 47.3535 68.647L46.6465 69.354Z" fill="#B86B5E"/>
<path d="M117.693 69.106C116.926 69.7031 115.754 70.7217 114.719 71.8501C114.201 72.4144 113.711 73.0142 113.321 73.6089C112.935 74.1982 112.628 74.8131 112.51 75.4029L112.391 76.0005H116.5V75.0005H113.688C113.804 74.7383 113.962 74.4557 114.157 74.1577C114.508 73.6224 114.961 73.0656 115.456 72.5259C116.446 71.4461 117.574 70.4646 118.307 69.8951L117.693 69.106Z" fill="#B86B5E"/>
<path d="M71.5 68.7007C70.3954 68.7007 69.5 70.4916 69.5 72.7007C69.5 74.9098 70.3954 76.7007 71.5 76.7007C72.6046 76.7007 73.5 74.9098 73.5 72.7007C73.5 70.4916 72.6046 68.7007 71.5 68.7007Z" fill="#3F232D"/>
<path d="M94.5 68.7007C93.3954 68.7007 92.5 70.4916 92.5 72.7007C92.5 74.9098 93.3954 76.7007 94.5 76.7007C95.6046 76.7007 96.5 74.9098 96.5 72.7007C96.5 70.4916 95.6046 68.7007 94.5 68.7007Z" fill="#3F232D"/>
<path fill-rule="evenodd" clip-rule="evenodd" d="M81.5001 75.4788C81.4174 77.3812 81.1687 80.2442 80.9395 82.7041C80.8603 83.5532 80.7838 84.3519 80.7173 85.045L80.7168 85.0497L80.7113 85.1074L80.7076 85.1461L80.6597 85.6464L80.6349 85.9063C80.5562 86.7338 80.4998 87.3441 80.4997 87.5C80.4995 87.7251 80.5934 87.9271 80.6935 88.0799C80.7991 88.2412 80.9424 88.3953 81.1085 88.534C81.4411 88.812 81.9017 89.0594 82.4457 89.1894C83.5602 89.4559 84.9862 89.221 86.3532 87.854L85.6461 87.1469C84.5131 88.2799 83.4388 88.3987 82.6782 88.2169C82.2845 88.1228 81.9638 87.9456 81.7497 87.7667C81.6423 87.677 81.5709 87.5945 81.5301 87.5322C81.5132 87.5064 81.5046 87.4888 81.5005 87.4792L81.5014 87.4601C81.5027 87.435 81.5048 87.4024 81.5078 87.3618C81.5137 87.2807 81.5225 87.1736 81.534 87.042C81.557 86.7792 81.59 86.4254 81.6304 86.001C81.6553 85.7396 81.6829 85.4516 81.7125 85.1423C81.7791 84.4486 81.8559 83.6473 81.9352 82.7969C82.1641 80.3401 82.4152 77.4531 82.4992 75.5222L81.5001 75.4788Z" fill="#B86B5E"/>
<path fill-rule="evenodd" clip-rule="evenodd" d="M68.1475 108.275L68.1299 109.127C68.1402 108.842 68.1461 108.559 68.1475 108.275Z" fill="#B86B5E"/>
<path d="M79.7568 100.438C80.5559 100.881 81.8952 101.406 83.3599 101.56C84.826 101.714 86.4797 101.501 87.8197 100.385L87.1796 99.6164C86.1196 100.5 84.7733 100.703 83.4644 100.566C82.9731 100.514 82.4957 100.415 82.054 100.291C81.8883 100.244 81.7277 100.194 81.5732 100.141L81.5219 100.124C81.3816 100.075 81.2465 100.025 81.1176 99.9734C80.7777 99.8379 80.4807 99.6957 80.2425 99.5634L79.7568 100.438Z" fill="#B86B5E"/>
<path d="M90.4516 61.0005C90.4522 62.53 91.4502 62.7506 92.9516 63.0005C96.4508 63.5834 97.9517 65.5004 98.9516 65.5005C99.9516 65.5005 101.452 65.0007 100.952 63.0005C100.452 61.0005 94.9491 59.0009 92.9487 59.0005C91.9487 59.0005 90.4513 59.0009 90.4516 61.0005Z" fill="#502C08"/>
<path d="M73.5493 61.0005C73.5487 62.5299 72.5504 62.7506 71.0493 63.0005C67.5504 63.5831 66.0493 65.4996 65.0493 65.5005C64.0494 65.5005 62.5496 65.0004 63.0493 63.0005C63.5493 61.0005 69.051 59.0008 71.0512 59.0005C72.0512 59.0005 73.5496 59.0009 73.5493 61.0005Z" fill="#502C08"/>
<path d="M82.1241 23.0909C81.6428 22.5223 87.8988 23.6591 89.3428 27.0704C90.1451 26.8809 92.5197 27.1851 95.5997 29.9141C99.419 33.2979 104.183 32.8653 108.018 40.0733C108.069 40.1172 108.12 40.1607 108.17 40.2051C108.687 39.8145 109.888 39.1114 111 39.1114C110.511 39.5737 109.724 40.4021 109.184 41.1846C110.55 42.6338 111.54 44.3028 111.843 46.2061C112.801 52.2319 113.879 56.9386 111.843 59.1075C111.834 59.0944 111.352 58.3702 110.121 58.3702L107.726 53.2647C102.953 51.4979 105.135 40.7118 80.7007 46.3384C80.4859 46.1816 80.2726 46.03 80.0639 45.8814L80.0005 46.2847C75.0272 42.6838 65.8505 37.7608 62.0005 50.9517C61.7402 50.0909 61.3663 48.9274 61.0844 47.5787C60.857 47.8028 60.6261 48.0339 60.3911 48.2711L55.7866 58.3707L52.627 61.9512C50.8671 56.6204 53.0983 42.9964 55.7862 39.1582C56.5615 38.0513 57.7491 36.9665 59.1798 35.9502C60.1195 33.9403 61.7182 31.6554 64.3165 29.8135C71.5354 24.6964 81.1607 24.2282 83.086 25.3653C82.9256 24.7968 82.509 23.546 82.1241 23.0909Z" fill="#502C08"/>
<path d="M55.0161 59.2437C54.5029 62.0403 54.3806 64.7628 54.5005 67.0005H53.5005L53.0005 66.7505L52.2363 60.259C52.3339 60.8853 52.463 61.4543 52.627 61.9512L55.0161 59.2437Z" fill="#DEB9A0"/>
<path d="M106.814 52.7672C107.092 52.9711 107.391 53.1408 107.726 53.2647L110.121 58.3702C111.352 58.3702 111.834 59.0944 111.843 59.1075C112.115 58.8175 112.329 58.4814 112.498 58.1037C112.498 58.1524 112.5 58.2014 112.5 58.2502L111.5 66.7505L110.991 67.0005H109.991C109.992 63.0363 109.17 57.5073 106.814 52.7672Z" fill="#DEB9A0"/>
<path d="M52.0092 57.4966C52.0223 58.038 52.0516 58.5592 52.0947 59.0558L52 58.2502C52 57.9982 52.0031 57.7472 52.0092 57.4966Z" fill="#DEB9A0"/>
<path d="M65.9048 44.0054C68.5304 41.7614 71.7058 42.0477 74.6255 43.2066C71.1967 42.7873 68.3164 43.1251 65.9048 44.0054Z" fill="#DEB9A0"/>
<path d="M82.0186 140.846L82.1152 140.751L82.2207 140.858C82.3442 140.623 82.4843 140.389 82.6328 140.243C82.8081 140.071 83.0883 139.72 83.3828 139.324C83.6705 138.938 83.9503 138.537 84.1191 138.288L84.5332 138.569L84.9473 138.85C84.7717 139.108 84.4833 139.521 84.1855 139.921C83.8946 140.312 83.572 140.723 83.334 140.957C83.2968 140.994 83.2017 141.132 83.0615 141.409C82.9319 141.666 82.7886 141.989 82.6445 142.339C82.3715 143.002 82.1062 143.735 81.9346 144.236C81.9471 145.909 82.2811 160.008 82.4502 166.988L81.4502 167.012C81.2781 159.911 80.9337 145.384 80.9336 144.154V144.071L80.96 143.993C81.1245 143.508 81.3897 142.772 81.6689 142.084L77.1973 135.768L69.3506 143.48L68.6494 142.767L77.335 134.231L82.0186 140.846ZM91.5684 133.615L98.8184 139.615L98.1816 140.385L91.3359 134.719L85.9678 141.914L85.5664 141.615L85.166 141.316L91.1641 133.279L91.5684 133.615Z" fill="#DBBA9C"/>
<path d="M62.9912 124.406C63.653 127.881 65.874 136.527 69.4414 143.266L68.5586 143.734C64.9263 136.873 62.6803 128.119 62.0088 124.594L62.9912 124.406ZM102.49 122.902C102.551 123.208 102.572 123.691 102.568 124.268C102.564 124.858 102.534 125.586 102.48 126.4C102.373 128.03 102.172 130.027 101.896 132.007C101.619 133.985 101.266 135.959 100.853 137.54C100.646 138.33 100.422 139.035 100.179 139.598C99.9451 140.139 99.6618 140.629 99.2998 140.9L98.7002 140.1C98.8382 139.996 99.0367 139.72 99.2607 139.201C99.4755 138.704 99.6849 138.053 99.8848 137.288C100.284 135.76 100.632 133.828 100.905 131.868C101.179 129.911 101.377 127.938 101.482 126.334C101.535 125.532 101.565 124.826 101.568 124.262C101.572 123.684 101.549 123.292 101.51 123.098L102.49 122.902Z" fill="#F6DEC8"/>
<path d="M85.5 148.5C85.5 149.328 84.8284 150 84 150C83.1716 150 82.5 149.328 82.5 148.5C82.5 147.672 83.1716 147 84 147C84.8284 147 85.5 147.672 85.5 148.5Z" fill="#9F8E7F"/>
<path d="M85.5 161.5C85.5 162.328 84.8284 163 84 163C83.1716 163 82.5 162.328 82.5 161.5C82.5 160.672 83.1716 160 84 160C84.8284 160 85.5 160.672 85.5 161.5Z" fill="#9F8E7F"/>
<path fill-rule="evenodd" clip-rule="evenodd" d="M96.499 116.5C99.6233 117.281 101.73 120.986 101.982 122.867L102.089 122.981L101.51 123.098C101.549 123.292 101.572 123.684 101.568 124.262C101.565 124.826 101.535 125.532 101.482 126.334C101.377 127.938 101.179 129.911 100.905 131.868C100.632 133.828 100.284 135.76 99.8848 137.288C99.6849 138.053 99.4755 138.704 99.2607 139.201C99.0367 139.72 98.8382 139.996 98.7002 140.1L99.2998 140.9C99.6618 140.629 99.9451 140.139 100.179 139.598C100.422 139.035 100.646 138.33 100.853 137.54C101.266 135.959 101.619 133.985 101.896 132.007C102.172 130.027 102.373 128.03 102.48 126.4C102.534 125.586 102.564 124.858 102.568 124.268C102.57 123.977 102.565 123.71 102.553 123.478L105.046 126.147L144.586 142.909C147.586 146.909 153.086 158.309 151.086 163.909H86.7129C86.3527 164.88 85.9531 165.91 85.499 167H81.9502L82.4502 166.988C82.2811 160.008 81.9471 145.909 81.9346 144.236C82.1062 143.735 82.3715 143.002 82.6445 142.339C82.7886 141.989 82.9319 141.666 83.0615 141.409C83.2017 141.132 83.2968 140.994 83.334 140.957C83.572 140.723 83.8946 140.312 84.1855 139.921C84.4833 139.521 84.7717 139.108 84.9473 138.85L84.5332 138.569L84.1191 138.288C83.9503 138.537 83.6705 138.938 83.3828 139.324C83.0883 139.72 82.8081 140.071 82.6328 140.243C82.4843 140.389 82.3442 140.623 82.2207 140.858L82.1152 140.751L82.0186 140.846L77.335 134.231L69.0049 142.416C65.6932 135.817 63.6255 127.736 62.9912 124.406L62.0088 124.594C62.6803 128.119 64.9263 136.873 68.5586 143.734L69.2432 143.37L69.3506 143.48L77.1973 135.768L81.6689 142.084C81.3897 142.772 81.1245 143.508 80.96 143.993L80.9336 144.071V144.154C80.9337 145.378 81.2744 159.762 81.4473 166.901L79.8867 163.909H12.0859C13.2526 158.076 16.286 144.11 19.0859 142.909C19.5689 142.702 20.8317 142.165 22.6611 141.387L23.0352 141.229C30.9116 137.88 48.2393 130.514 59.9268 125.441C60.7397 125.089 61.526 124.746 62.2793 124.418C62.3345 124.087 62.3998 123.757 62.4717 123.428C62.0239 120.188 63.8212 118.634 65.4385 117.625C65.9768 117.289 66.6874 117.566 66.8882 118.168L67.2514 119.259L78.0005 128.428L82.5005 135L87.3891 129.929C87.6298 129.667 87.8968 129.428 88.1841 129.217L89.2602 128.428C92.624 125.964 95.1503 122.526 96.4995 118.583L96.499 116.5ZM84 160C83.1716 160 82.5 160.672 82.5 161.5C82.5 162.328 83.1716 163 84 163C84.8284 163 85.5 162.328 85.5 161.5C85.5 160.672 84.8284 160 84 160ZM84 147C83.1716 147 82.5 147.672 82.5 148.5C82.5 149.328 83.1716 150 84 150C84.8284 150 85.5 149.328 85.5 148.5C85.5 147.672 84.8284 147 84 147ZM85.166 141.316L85.5664 141.615L85.9678 141.914L91.3359 134.719L98.1816 140.385L98.8184 139.615L91.5684 133.615L91.1641 133.279L85.166 141.316Z" fill="#FFF3E8"/>
</g>
<defs>
<clipPath id="clip0_3039_1876">
<rect width="164" height="164" rx="82" fill="white"/>
</clipPath>
</defs>
</svg>
