<svg width="164" height="164" viewBox="0 0 164 164" fill="none" xmlns="http://www.w3.org/2000/svg">
<g clip-path="url(#clip0_3039_1482)">
<rect width="164" height="164" rx="82" fill="#F5D8B8"/>
<path d="M49.6605 64.622C44.854 63.4326 40.0898 64.9498 42.7778 76.0005C45.2345 86.1002 51.4009 89.4784 56.7648 90.0759C57.7476 97.7197 62.0525 104.262 68.1474 108.274C68.1404 109.675 68.0177 111.12 67.8185 112.539C64.7977 113.061 58.4306 114.614 55.1999 120.616C47.6596 123.508 29.0252 129.948 23.5 133.5C16.5 138 10 165 10 169L153.5 169.5C151.667 160 146.6 139.8 141 135C135.4 130.2 115.667 122.333 107.5 119L107 118C104.415 113.938 98.5343 112.195 95.7997 111.564L95.5726 108.801C102.107 104.85 106.763 98.0641 107.79 90.0759C113.154 89.4784 119.32 86.1002 121.777 76.0005C124.557 64.5715 119.366 63.3399 114.401 64.7534C114.573 63.1149 114.596 60.7833 114.52 58.1156C115.106 57.4106 116.201 55.6005 115.889 54.0003C115.801 53.2005 114.698 51.7703 114.157 51.1552C114.062 49.8107 113.954 48.4463 113.834 47.0896C113.102 38.768 107.977 31.289 99.6387 28.4791C94.5593 26.7674 88.4134 25.2611 82.0855 25.0199C72.9854 24.673 63.865 28.9332 57.8142 32.5692C52.9367 35.5001 50.013 40.3525 49.8159 45.8033C49.7386 47.9429 49.7031 50.2794 49.6855 52.6338C49.3519 53.0576 48.7633 54.1241 49.0778 55.0003C49.1359 55.3278 49.4961 56.168 49.6689 56.5471C49.6642 59.2232 49.6677 61.7916 49.644 63.9783V64.6238" stroke="#6D290E" stroke-width="3"/>
<path d="M95.79 111.567C98.3682 112.136 104.315 113.781 107 118C107.215 118.338 107.428 118.691 107.639 119.057C115.888 122.422 135.431 130.227 141 135C146.6 139.8 151.667 160 153.5 169.5L10 169C10 165 16.5 138 23.5 133.5C29.0254 129.948 47.6606 123.506 55.2002 120.613C58.4978 114.488 65.0609 112.99 68 112.5L67 117.5C66.8905 117.61 66.7816 117.711 66.6777 117.81C66.3706 117.472 65.8544 117.366 65.4395 117.625C63.5101 118.829 61.3231 120.807 62.999 125.5C64.9365 130.925 67.3435 139.604 69.3105 143.626L69.5 144L81.5 167H85.5C87.9999 161 88.8561 156.802 90.5 154.5C92.9999 151 96.3331 144.334 96.5 143.5C99.6666 138.5 102 128.2 102 123C101.839 121.224 99.8314 117.54 96.7969 116.584L96.5 116.5C96.1937 115.045 95.6225 112.021 95.79 111.567Z" fill="#020403"/>
<path fill-rule="evenodd" clip-rule="evenodd" d="M87.8145 60.962C87.7781 60.4349 88.0598 60.0034 88.4425 60L96.5746 60.1617C97.1181 60.153 97.5704 60.7509 97.9564 61.3227L99.0823 63.3761C99.178 63.5506 99.1619 63.7669 99.0159 63.9021C98.8427 64.0624 98.5866 64.2506 98.311 64.2856C97.815 64.3487 96.1557 63.1442 95.2997 63.2395L90.223 63.7728C89.0344 63.905 87.9285 62.6145 87.8145 60.962Z" fill="#2C1B11"/>
<path fill-rule="evenodd" clip-rule="evenodd" d="M76.1855 60.962C76.2219 60.4349 75.9402 60.0034 75.5575 60L67.4254 60.1617C66.8819 60.153 66.4296 60.7509 66.0436 61.3227L64.9177 63.3761C64.822 63.5506 64.8381 63.7669 64.9841 63.9021C65.1573 64.0624 65.4134 64.2506 65.689 64.2856C66.185 64.3487 67.8443 63.1442 68.7003 63.2395L73.777 63.7728C74.9656 63.905 76.0715 62.6145 76.1855 60.962Z" fill="#2C1B11"/>
<path fill-rule="evenodd" clip-rule="evenodd" d="M83.5963 96.9954C80.2371 97.0039 76.8227 96.0849 74.6969 95.2346L75.0682 94.3061C77.1091 95.1225 80.3947 96.0035 83.5938 95.9954C86.8016 95.9872 89.7966 95.0906 91.462 92.5L92.3031 93.0408C90.3686 96.0501 86.9468 96.9869 83.5963 96.9954Z" fill="#3D2035"/>
<path d="M83.544 43.9987C107.406 43.9987 114.829 50 115.889 54.0003C116.74 57.2103 112.469 60.0974 110.748 61.113C112.273 63.8762 112.7 65.9632 112.708 66H111.117C109.172 61.3329 100.724 52.0992 82.4835 52.4992C64.2433 52.8992 54.3805 61.6663 51.729 66H50.6685L51.1988 63.5008C51.1988 63.5008 51.7036 62.1951 53.0225 60.3288C52.2202 59.8383 50.0152 58.2412 49.0778 55.0003C47.9209 51.0001 59.6824 43.9987 83.544 43.9987Z" fill="black"/>
<path d="M49.6689 56.5471C50.7407 58.7639 52.3599 59.9237 53.0225 60.3288C51.7154 62.1785 51.2077 63.4778 51.1988 63.5008L50.6685 66L49.7217 65.4461C49.628 65.0046 49.6395 64.3935 49.644 63.9783C49.6677 61.7916 49.6642 59.2232 49.6689 56.5471Z" fill="#374C5F"/>
<path d="M114.52 58.1156C114.609 61.2315 114.559 63.8616 114.298 65.5008L112.708 66C112.698 65.9528 112.269 63.8691 110.748 61.113C111.668 60.5701 113.314 59.4914 114.52 58.1156Z" fill="#374C5F"/>
<path d="M82.0855 25.0199C88.4134 25.2611 94.5593 26.7674 99.6387 28.4791C107.977 31.289 113.102 38.768 113.834 47.0896C113.954 48.4463 114.062 49.8107 114.157 51.1552C110.766 47.6504 102.156 43.9987 83.544 43.9987C63.9335 43.9987 52.4963 48.7283 49.6855 52.6338C49.7031 50.2794 49.7386 47.9429 49.8159 45.8033C50.013 40.3525 52.9367 35.5001 57.8142 32.5692C63.865 28.9332 72.9854 24.673 82.0855 25.0199Z" fill="#374C5F"/>
<path d="M95.64 109.786C95.6835 110.359 95.7357 110.956 95.7973 111.568C95.795 111.568 95.7923 111.568 95.79 111.567C95.6567 111.929 95.9929 113.916 96.2895 115.446C96.3561 115.879 96.4259 116.31 96.5004 116.734V119C95.0004 124 91.4999 132.5 85.5004 134.5L81.4994 141.3L77.4994 134.5C72.6662 131.667 67.8995 124 67.4994 120L66.8891 118.168C66.8501 118.051 66.7915 117.947 66.7191 117.857C66.7295 117.818 66.7382 117.78 66.7484 117.741C66.8297 117.663 66.9153 117.585 67 117.5L67.4838 115.082C75.1068 115.548 88.2818 116.229 93.7611 110.591C93.6841 110.625 93.6052 110.656 93.5277 110.69C94.2456 110.379 94.9487 110.042 95.6322 109.675L95.64 109.786Z" fill="#EFC7AB"/>
<path fill-rule="evenodd" clip-rule="evenodd" d="M82.4835 52.4992C98.5232 52.1476 106.991 59.2466 110.122 64.1378C109.328 68.1057 106.254 82.6697 102.791 88.7472C100.539 88.451 96.6106 88.0002 93.56 88.0001C89.0355 88.0001 82.5794 90.9754 82.5258 91.0001C82.5117 90.992 77.325 88.0002 71.4916 88.0001C67.7265 88.0001 64.2302 88.4157 62.2211 88.711C58.0307 81.7775 54.2988 65.8477 53.7484 63.4337C58.028 58.8966 67.3847 52.8304 82.4835 52.4992ZM81.5014 75.4786C81.4187 77.381 81.1691 80.2444 80.9398 82.7042C80.8607 83.5532 80.7846 84.352 80.7182 85.045L80.7172 85.0499C80.7163 85.0595 80.7155 85.0692 80.7147 85.0788C80.714 85.0884 80.7132 85.098 80.7123 85.1075C80.6849 85.3937 80.6594 85.6614 80.6361 85.9064C80.5574 86.7338 80.5005 87.3442 80.5004 87.5001C80.5002 87.7251 80.5938 87.9274 80.6938 88.0802C80.7993 88.2414 80.9429 88.3956 81.1088 88.5343C81.4414 88.8122 81.9029 89.0596 82.4467 89.1896C83.5611 89.4557 84.9872 89.2203 86.3539 87.8536L85.6469 87.1466C84.5142 88.2793 83.4397 88.3985 82.6791 88.2169C82.2856 88.1229 81.9645 87.9456 81.7504 87.7667C81.6432 87.6771 81.5715 87.5946 81.5307 87.5323C81.5141 87.507 81.5056 87.4893 81.5014 87.4796L81.5023 87.4601C81.5026 87.4553 81.5029 87.4502 81.5032 87.4448C81.5039 87.4306 81.5048 87.4144 81.5059 87.3963L81.5062 87.3918C81.5068 87.3822 81.5074 87.3721 81.5082 87.3614C81.5141 87.2805 81.5231 87.1734 81.5346 87.0421C81.5575 86.7793 81.5909 86.4254 81.6313 86.0011C81.6561 85.7399 81.6836 85.4518 81.7133 85.1427C81.7135 85.1403 81.7137 85.1378 81.714 85.1354C81.7803 84.4435 81.857 83.6444 81.9359 82.797C82.1649 80.3404 82.4164 77.4535 82.5004 75.5226L81.5014 75.4786ZM71.5004 68.7003C70.3961 68.7008 69.5005 70.4916 69.5004 72.7003C69.5004 74.9091 70.3961 76.6998 71.5004 76.7003C72.6048 76.6999 73.5004 74.9091 73.5004 72.7003C73.5003 70.4916 72.6047 68.7007 71.5004 68.7003ZM94.5004 68.7003C93.3961 68.7008 92.5005 70.4916 92.5004 72.7003C92.5004 74.9091 93.3961 76.6998 94.5004 76.7003C95.6048 76.6999 96.5004 74.9091 96.5004 72.7003C96.5003 70.4916 95.6047 68.7007 94.5004 68.7003ZM67.4254 60.1617C66.8819 60.153 66.4296 60.7509 66.0436 61.3227L64.9177 63.3761C64.822 63.5506 64.8381 63.7669 64.9841 63.9021C65.1573 64.0624 65.4134 64.2506 65.689 64.2856C66.185 64.3487 67.8443 63.1442 68.7003 63.2395L73.777 63.7728C74.9656 63.905 76.0715 62.6145 76.1855 60.962C76.2219 60.4349 75.9402 60.0034 75.5575 60L67.4254 60.1617ZM88.4425 60C88.0598 60.0034 87.7781 60.4349 87.8145 60.962C87.9285 62.6145 89.0344 63.905 90.223 63.7728L95.2997 63.2395C96.1557 63.1442 97.815 64.3487 98.311 64.2856C98.5866 64.2506 98.8427 64.0624 99.0159 63.9021C99.1619 63.7669 99.178 63.5506 99.0823 63.3761L97.9564 61.3227C97.5704 60.7509 97.1181 60.153 96.5746 60.1617L88.4425 60Z" fill="#EFC7AB"/>
<path fill-rule="evenodd" clip-rule="evenodd" d="M42.7787 76.0011C40.0935 64.962 44.8437 63.4388 49.6449 64.6212C49.6514 64.9069 49.67 65.2023 49.7217 65.4461L50.5795 65.9474L55.2787 89.838C50.306 88.8036 45.011 85.1775 42.7787 76.0011ZM46.6469 69.3536C47.3003 70.007 48.2832 71.0882 49.0981 72.1964C49.5057 72.7508 49.8637 73.3019 50.1176 73.8019C50.2697 74.1014 50.3748 74.3651 50.4359 74.588L47.9184 75.0069L48.0824 75.9933L51.5004 75.4239V75.0001C51.5003 74.4805 51.2905 73.9027 51.0092 73.3487C50.7216 72.7824 50.3292 72.1832 49.9037 71.6046C49.0521 70.4465 48.0339 69.3266 47.3539 68.6466L46.6469 69.3536Z" fill="#EFC7AB"/>
<path fill-rule="evenodd" clip-rule="evenodd" d="M114.394 64.756C119.361 63.3395 124.559 64.5668 121.778 76.0011C119.55 85.1572 114.273 88.7884 109.31 89.8321L113.519 65.7452L114.298 65.5008C114.335 65.2715 114.366 65.0226 114.394 64.756ZM117.694 69.1056C116.926 69.7027 115.754 70.7214 114.719 71.8497C114.202 72.4141 113.711 73.0147 113.322 73.6095C112.936 74.1987 112.628 74.8127 112.51 75.4025L112.391 76.0001H116.5V75.0001H113.689C113.805 74.7379 113.962 74.4552 114.158 74.1573C114.508 73.6221 114.962 73.0651 115.456 72.5255C116.446 71.446 117.575 70.4651 118.307 69.8956L117.694 69.1056Z" fill="#EFC7AB"/>
<path d="M111.269 62.1124C111.285 62.1459 111.301 62.1798 111.317 62.213C111.294 62.1665 111.272 62.1195 111.248 62.0724L111.269 62.1124Z" fill="#EFC7AB"/>
<path d="M43.9375 134.601C47.2274 136.203 52.4721 139.103 57.5557 142.614C62.6133 146.107 67.6268 150.283 70.3389 154.455C75.047 161.698 77.9255 166.215 79.0508 168H79.5V170H77.9453L77.6523 169.53C76.8237 168.204 73.8601 163.543 68.6611 155.545C66.1732 151.717 61.4362 147.726 56.4189 144.261C51.4278 140.814 46.2726 137.963 43.0625 136.399L43.9375 134.601ZM119.419 136.908C116.223 138.383 111.002 141.228 105.793 144.939C100.571 148.661 95.4405 153.197 92.3418 158.039L92.3242 158.066C91.4179 159.385 90.0058 161.54 88.7236 163.709C87.4208 165.913 86.3216 168.016 85.9619 169.274L85.7539 170H83.5V168H84.2822C84.8432 166.508 85.9024 164.551 87.002 162.691C88.3114 160.477 89.7487 158.282 90.6758 156.934C93.9785 151.786 99.3385 147.083 104.632 143.311C109.948 139.523 115.277 136.617 118.581 135.092L119.419 136.908Z" fill="#2C2C2D"/>
<path d="M95.79 111.567C98.3682 112.136 104.315 113.781 107 118C107.215 118.338 107.428 118.691 107.639 119.057C115.888 122.422 135.431 130.227 141 135C146.6 139.8 151.667 160 153.5 169.5L85.9648 169.265C86.3274 168.005 87.4241 165.907 88.7236 163.709C90.0058 161.54 91.4179 159.385 92.3242 158.066L92.3418 158.039C95.4405 153.197 100.571 148.661 105.793 144.939C111.002 141.228 116.223 138.383 119.419 136.908L118.581 135.092C115.277 136.617 109.948 139.523 104.632 143.311C99.3385 147.083 93.9785 151.786 90.6758 156.934C89.7487 158.282 88.3114 160.477 87.002 162.691C85.9024 164.551 84.8432 166.508 84.2822 168H83.5V169.256L79.5 169.241V168H79.0508C77.9255 166.215 75.047 161.698 70.3389 154.455C67.6268 150.283 62.6133 146.107 57.5557 142.614C52.4721 139.103 47.2274 136.203 43.9375 134.601L43.0625 136.399C46.2726 137.963 51.4278 140.814 56.4189 144.261C61.4362 147.726 66.1732 151.717 68.6611 155.545C73.5266 163.03 76.4336 167.593 77.4658 169.234L10 169C10 165 16.5 138 23.5 133.5C29.0254 129.948 47.6606 123.506 55.2002 120.613C58.4978 114.488 65.0609 112.99 68 112.5L67 117.5C65.6919 118.808 64.7951 119.295 64.165 120.25L66 120.197L78.5 141.5L85 143L98 127L100.337 119.71C98.9905 118.265 97.2196 117.014 96.5 116.5C96.1937 115.045 95.6225 112.021 95.79 111.567Z" fill="#020403"/>
<path d="M82.0186 140.846L82.1152 140.751L82.2207 140.858C82.3442 140.623 82.4843 140.389 82.6328 140.243C82.8081 140.071 83.0883 139.72 83.3828 139.324C83.6705 138.938 83.9503 138.537 84.1191 138.288L84.5332 138.569L84.9473 138.85C84.7717 139.108 84.4833 139.521 84.1855 139.921C83.8946 140.312 83.572 140.723 83.334 140.957C83.2968 140.994 83.2017 141.132 83.0615 141.409C82.9319 141.666 82.7886 141.989 82.6445 142.339C82.3715 143.002 82.1062 143.735 81.9346 144.236C81.9471 145.909 82.2811 160.008 82.4502 166.988L81.4502 167.012C81.2781 159.911 80.9337 145.384 80.9336 144.154V144.071L80.96 143.993C81.1245 143.508 81.3897 142.772 81.6689 142.084L77.1973 135.768L69.3506 143.479L68.6494 142.767L77.335 134.231L82.0186 140.846ZM91.5684 133.615L98.8184 139.615L98.1816 140.385L91.3359 134.719L85.9678 141.914L85.5664 141.615L85.166 141.316L91.1641 133.279L91.5684 133.615Z" fill="#456598"/>
<path fill-rule="evenodd" clip-rule="evenodd" d="M96.5 116.5C99.6996 117.3 101.833 121.167 102 123C102 127.012 100.61 134.061 98.5202 139.368L91.5684 133.615L91.1641 133.279L85.166 141.316L85.5664 141.615L85.9678 141.914L91.3359 134.719L98.1227 140.336C97.6144 141.522 97.0714 142.598 96.5 143.5C96.3331 144.334 92.9999 151 90.5 154.5C88.8561 156.802 87.9999 161 85.5 167H81.9498L82.4502 166.988C82.2811 160.008 81.9471 145.909 81.9346 144.236C82.1062 143.735 82.3715 143.002 82.6445 142.339C82.7886 141.989 82.9319 141.666 83.0615 141.409C83.2017 141.132 83.2968 140.994 83.334 140.957C83.572 140.723 83.8946 140.312 84.1855 139.921C84.4833 139.521 84.7717 139.108 84.9473 138.85L84.5332 138.569L84.1191 138.288C83.9503 138.537 83.6705 138.938 83.3828 139.324C83.0883 139.72 82.8081 140.071 82.6328 140.243C82.4843 140.389 82.3442 140.623 82.2207 140.858L82.1152 140.751L82.0186 140.846L81.8805 140.651L85.5004 134.5C91.4999 132.5 95.0004 124 96.5004 119L96.5 116.5ZM83.9996 160C83.1714 160 82.4996 160.672 82.4996 161.5C82.4996 162.328 83.1714 163 83.9996 163C84.828 163 85.4996 162.328 85.4996 161.5C85.4996 160.672 84.828 160 83.9996 160ZM83.9996 147C83.1714 147 82.4996 147.672 82.4996 148.5C82.4996 149.328 83.1714 150 83.9996 150C84.828 150 85.4996 149.328 85.4996 148.5C85.4996 147.672 84.828 147 83.9996 147Z" fill="#688EC8"/>
<path d="M81.6689 142.084C81.3897 142.772 81.1245 143.508 80.96 143.993L80.9336 144.071V144.154C80.9337 145.377 81.274 159.757 81.4469 166.897L69.5 144L69.3105 143.626C69.2537 143.51 69.1969 143.39 69.1393 143.266L69.3506 143.479L77.1973 135.768L81.6689 142.084Z" fill="#688EC8"/>
<path d="M65.4395 117.625C65.9778 117.289 66.6884 117.566 66.8891 118.168L67.4994 120C67.892 123.925 72.4912 131.378 77.2301 134.333L68.8366 142.582C66.9668 138.244 64.7826 130.494 62.999 125.5C61.3231 120.807 63.5101 118.829 65.4395 117.625Z" fill="#688EC8"/>
<path d="M85.4996 148.5C85.4996 149.328 84.828 150 83.9996 150C83.1714 150 82.4996 149.328 82.4996 148.5C82.4996 147.672 83.1714 147 83.9996 147C84.828 147 85.4996 147.672 85.4996 148.5Z" fill="#1A2741"/>
<path d="M85.4996 161.5C85.4996 162.328 84.828 163 83.9996 163C83.1714 163 82.4996 162.328 82.4996 161.5C82.4996 160.672 83.1714 160 83.9996 160C84.828 160 85.4996 160.672 85.4996 161.5Z" fill="#1A2741"/>
<path fill-rule="evenodd" clip-rule="evenodd" d="M49.0981 72.1964C48.2832 71.0882 47.3003 70.007 46.6469 69.3536L47.3539 68.6466C48.0339 69.3266 49.0521 70.4465 49.9037 71.6046C50.3292 72.1832 50.7216 72.7824 51.0092 73.3487C51.2905 73.9027 51.5003 74.4805 51.5004 75.0001V75.4239L48.0824 75.9933L47.9184 75.0069L50.4359 74.588C50.3748 74.3651 50.2697 74.1014 50.1176 73.8019C49.8637 73.3019 49.5057 72.7508 49.0981 72.1964Z" fill="#B86B5E"/>
<path d="M68.126 109.191C72.271 111.613 77.1382 113 82.3115 113C86.3881 113 90.2716 112.138 93.7611 110.591C88.2571 116.255 74.9877 115.543 67.3809 115.077C67.7718 113.172 68.0504 111.166 68.126 109.191Z" fill="#3F232D"/>
<path d="M71.5004 68.7003C72.6047 68.7007 73.5003 70.4916 73.5004 72.7003C73.5004 74.9091 72.6048 76.6999 71.5004 76.7003C70.3961 76.6998 69.5004 74.9091 69.5004 72.7003C69.5005 70.4916 70.3961 68.7008 71.5004 68.7003Z" fill="#3F232D"/>
<path d="M94.5004 68.7003C95.6047 68.7007 96.5003 70.4916 96.5004 72.7003C96.5004 74.9091 95.6048 76.6999 94.5004 76.7003C93.3961 76.6998 92.5004 74.9091 92.5004 72.7003C92.5005 70.4916 93.3961 68.7008 94.5004 68.7003Z" fill="#3F232D"/>
<path fill-rule="evenodd" clip-rule="evenodd" d="M83.5963 96.9954C80.2371 97.0039 76.8227 96.0849 74.6969 95.2346L75.0682 94.3061C77.1091 95.1225 80.3947 96.0035 83.5938 95.9954C86.8016 95.9872 89.7966 95.0906 91.462 92.5L92.3031 93.0408C90.3686 96.0501 86.9468 96.9869 83.5963 96.9954Z" fill="#3D2035"/>
<path fill-rule="evenodd" clip-rule="evenodd" d="M109.293 89.9277C107.816 103.049 96.1791 113 82.3115 113C68.6262 113 57.0822 103.302 55.3848 90.3799L50.5795 65.9474L50.6685 66H51.729C52.1856 65.2537 52.8582 64.3775 53.7484 63.4337L53.8584 63.916C54.6865 67.4776 58.2483 82.1375 62.2211 88.711C64.2302 88.4157 67.7265 88.0001 71.4916 88.0001C77.325 88.0002 82.5117 90.992 82.5258 91.0001C82.5258 91.0001 89.0166 88.0001 93.56 88.0001C96.6106 88.0002 100.539 88.451 102.791 88.7472C106.257 82.6647 109.332 68.0815 110.124 64.1279C110.123 64.1312 110.123 64.1345 110.122 64.1378C110.552 64.8087 110.882 65.437 111.117 66H112.708L113.52 65.7441L113.519 65.7452L109.293 89.9277ZM91.462 92.5C89.7966 95.0906 86.8016 95.9872 83.5938 95.9954C80.3947 96.0035 77.1091 95.1225 75.0682 94.3061L74.6969 95.2346C76.8227 96.0849 80.2371 97.0039 83.5963 96.9954C86.9468 96.9869 90.3686 96.0501 92.3031 93.0408L91.462 92.5Z" fill="#B86B5E"/>
<path fill-rule="evenodd" clip-rule="evenodd" d="M46.6469 69.3536C47.3003 70.007 48.2832 71.0882 49.0981 72.1964C49.5057 72.7508 49.8637 73.3019 50.1176 73.8019C50.2697 74.1014 50.3748 74.3651 50.4359 74.588L47.9184 75.0069L48.0824 75.9933L51.5004 75.4239V75.0001C51.5003 74.4805 51.2905 73.9027 51.0092 73.3487C50.7216 72.7824 50.3292 72.1832 49.9037 71.6046C49.0521 70.4465 48.0339 69.3266 47.3539 68.6466L46.6469 69.3536Z" fill="#B86B5E"/>
<path d="M117.694 69.1056C116.926 69.7027 115.754 70.7214 114.719 71.8497C114.202 72.4141 113.711 73.0147 113.322 73.6095C112.936 74.1987 112.628 74.8127 112.51 75.4025L112.391 76.0001H116.5V75.0001H113.689C113.805 74.7379 113.962 74.4552 114.158 74.1573C114.508 73.6221 114.962 73.0651 115.456 72.5255C116.446 71.446 117.575 70.4651 118.307 69.8956L117.694 69.1056Z" fill="#B86B5E"/>
<path fill-rule="evenodd" clip-rule="evenodd" d="M81.5032 87.4448C81.5039 87.4306 81.5048 87.4144 81.5059 87.3963L81.5062 87.3918" fill="#B86B5E"/>
<path d="M81.5014 75.4786C81.4187 77.381 81.1691 80.2444 80.9398 82.7042C80.8607 83.5532 80.7846 84.352 80.7182 85.045L80.7172 85.0499C80.7163 85.0595 80.7155 85.0692 80.7147 85.0788C80.714 85.0884 80.7132 85.098 80.7123 85.1075C80.6849 85.3937 80.6594 85.6614 80.6361 85.9064C80.5574 86.7338 80.5005 87.3442 80.5004 87.5001C80.5002 87.7251 80.5938 87.9274 80.6938 88.0802C80.7993 88.2414 80.9429 88.3956 81.1088 88.5343C81.4414 88.8122 81.9029 89.0596 82.4467 89.1896C83.5611 89.4557 84.9872 89.2203 86.3539 87.8536L85.6469 87.1466C84.5142 88.2793 83.4397 88.3985 82.6791 88.2169C82.2856 88.1229 81.9645 87.9456 81.7504 87.7667C81.6432 87.6771 81.5715 87.5946 81.5307 87.5323C81.5141 87.507 81.5056 87.4893 81.5014 87.4796L81.5023 87.4601L81.5032 87.4448L81.5059 87.3963L81.5062 87.3918L81.5082 87.3614C81.5141 87.2805 81.5231 87.1734 81.5346 87.0421C81.5575 86.7793 81.5909 86.4254 81.6313 86.0011C81.6561 85.7399 81.6836 85.4518 81.7133 85.1427L81.714 85.1354C81.7803 84.4435 81.857 83.6444 81.9359 82.797C82.1649 80.3404 82.4164 77.4535 82.5004 75.5226L81.5014 75.4786Z" fill="#B86B5E"/>
</g>
<defs>
<clipPath id="clip0_3039_1482">
<rect width="164" height="164" rx="82" fill="white"/>
</clipPath>
</defs>
</svg>
