<svg width="164" height="164" viewBox="0 0 164 164" fill="none" xmlns="http://www.w3.org/2000/svg">
<g clip-path="url(#clip0_193_5631)">
<rect width="164" height="164" rx="82" fill="#FDD3D0"/>
<path d="M95.9671 29.8202C93.2693 26.4824 81.5005 20.4075 68.1468 26.8162C51.4546 34.8269 45.0294 48.5028 43.3615 57.858C40.3265 74.8809 35.2678 73.7993 35.2678 87.8985C35.2678 98.9133 40.3265 106.924 40.3265 113.433C40.3265 120.377 31.34 126.645 31.5 136.5C25.0064 139.25 18.1215 142.209 17.0582 142.66C14.2256 143.861 12 158.681 12 163H150.596C152.619 157.392 146.535 144.005 143.5 140L116.5 129C123.076 121.991 131.475 98.4126 127.833 80.3883C123.281 57.858 119.234 44.3398 111.141 35.8283C104.667 29.0191 97.9899 29.3195 95.4608 30.3209" stroke="black" stroke-width="3"/>
<path d="M39 92.5L52 64L104.5 52.5L124.5 86L117.5 122L109.5 139.5H52L39 92.5Z" fill="#482E17"/>
<path d="M47 104.5C40.2 86.5 49.8333 75.3333 55.5 72L53 87.5C49 93.5 55.5 117 60.5 129C65.5 141 58 146 53 153C49 158.6 49.3333 163 50 164.5H46C42.5 157 49.5 150.5 53 144C56.5 137.5 55.5 127 47 104.5Z" fill="#432C1D"/>
<path fill-rule="evenodd" clip-rule="evenodd" d="M82.25 27.2002C98.9566 27.2002 112.5 40.7436 112.5 57.4502L111.511 65.8604C116.967 63.2558 125.114 62.2823 121.777 76C119.321 86.0995 113.154 89.4777 107.79 90.0752C106.795 97.8137 102.395 104.424 96.1797 108.422L95.5723 108.801L95.6396 109.786C96.0245 114.852 97.1181 121.867 98.8057 123.981L143.5 143C146.5 147 152 157.4 150 163H13C14.1667 157.167 17.2 144.2 20 143C22.6815 141.851 50.3381 130.064 64.6787 123.798C65.5078 121.89 66.5237 118.979 67.2412 115.729L67.3809 115.075C75.5547 115.576 90.2685 116.364 94.8584 109.217C91.1306 111.31 86.8349 112.5 82.2773 112.5C77.237 112.5 72.5171 111.045 68.5312 108.521L68.1475 108.273L67.5811 107.891C61.7865 103.852 57.7167 97.4801 56.7646 90.0752C51.4009 89.4777 45.235 86.0995 42.7783 76C39.4533 62.3305 47.5308 63.2483 52.9863 65.832L52 57.4502C52 40.7436 65.5434 27.2002 82.25 27.2002ZM79.7568 100.438C80.5559 100.881 81.8956 101.406 83.3604 101.56C84.8265 101.714 86.4803 101.5 87.8203 100.384L87.1797 99.6162C86.1198 100.499 84.7736 100.703 83.4648 100.565C82.3185 100.445 81.2485 100.066 80.5293 99.7119L80.2432 99.5625L79.7568 100.438ZM91.4619 92.2012C89.7965 94.7917 86.8015 95.6881 83.5938 95.6963L82.9941 95.6875C82.9847 95.6872 82.9753 95.6859 82.9658 95.6855C82.1465 95.659 81.3273 95.5786 80.5303 95.46C78.6087 95.1736 76.8165 94.667 75.4658 94.1611L75.0684 94.0078L74.6973 94.9355C76.6903 95.7327 79.8159 96.5905 82.9668 96.6875L83.5967 96.6963C85.1127 96.6924 86.6431 96.4978 88.0439 96.0078C89.7391 95.4151 91.2445 94.3898 92.3037 92.7422L91.4619 92.2012ZM81.501 75.4785C81.4183 77.3808 81.1687 80.2434 80.9395 82.7031C80.8603 83.5522 80.7842 84.3518 80.7178 85.0449L80.7168 85.0488L80.7119 85.1074C80.6845 85.3935 80.659 85.6614 80.6357 85.9062C80.557 86.7336 80.5001 87.3441 80.5 87.5C80.4999 87.7247 80.5935 87.9265 80.6934 88.0791C80.7989 88.2403 80.9425 88.3945 81.1084 88.5332C81.4411 88.8112 81.9023 89.0594 82.4463 89.1895C83.5608 89.4557 84.9867 89.2204 86.3535 87.8535L85.6465 87.1465C84.5136 88.2793 83.4393 88.3985 82.6787 88.2168C82.2852 88.1227 81.9641 87.9455 81.75 87.7666C81.6427 87.6769 81.5711 87.5935 81.5303 87.5312C81.5136 87.5057 81.5051 87.488 81.501 87.4785L81.502 87.46C81.5033 87.4348 81.5049 87.4019 81.5078 87.3613C81.5137 87.2804 81.5227 87.1733 81.5342 87.042C81.5571 86.7791 81.5905 86.4244 81.6309 86C81.6557 85.7387 81.6832 85.4508 81.7129 85.1416C81.7794 84.4481 81.8563 83.6471 81.9355 82.7969C82.1645 80.3401 82.416 77.4524 82.5 75.5215L81.501 75.4785ZM71.5 68.7002C70.3954 68.7002 69.5 70.4911 69.5 72.7002C69.5 74.9093 70.3954 76.7002 71.5 76.7002C72.6046 76.7002 73.5 74.9093 73.5 72.7002C73.5 70.4911 72.6046 68.7002 71.5 68.7002ZM94.5 68.7002C93.3954 68.7002 92.5 70.4911 92.5 72.7002C92.5 74.9093 93.3954 76.7002 94.5 76.7002C95.6046 76.7002 96.5 74.9093 96.5 72.7002C96.5 70.4911 95.6046 68.7002 94.5 68.7002ZM117.693 69.1055C116.926 69.7026 115.754 70.7212 114.719 71.8496C114.201 72.4139 113.711 73.0137 113.321 73.6084C112.935 74.1977 112.628 74.8125 112.51 75.4023L112.391 76H116.5V75H113.688C113.804 74.7377 113.962 74.4552 114.157 74.1572C114.508 73.6219 114.961 73.0651 115.456 72.5254C116.446 71.4456 117.574 70.4641 118.307 69.8945L117.693 69.1055ZM46.6465 69.3535C47.2999 70.0069 48.2827 71.0879 49.0977 72.1963C49.5053 72.7506 49.8633 73.3018 50.1172 73.8018C50.2692 74.1011 50.3744 74.3641 50.4355 74.5869L47.918 75.0068L48.082 75.9932L51.5 75.4238V75C51.5 74.4803 51.2901 73.9027 51.0088 73.3486C50.7211 72.782 50.329 72.1824 49.9033 71.6035C49.0516 70.4452 48.0335 69.3264 47.3535 68.6465L46.6465 69.3535Z" fill="#EFC7AB"/>
<path d="M68.0869 109.983C68.0498 110.556 67.9966 111.129 67.9297 111.7L67.8193 112.554C67.8994 111.986 67.966 111.414 68.0186 110.842L68.0869 109.983Z" fill="#EFC7AB"/>
<path d="M82.2773 112.5C77.0742 112.5 72.2127 110.949 68.1475 108.273C68.1362 110.541 67.8325 112.874 67.3809 115.075V115.076C75.5547 115.577 90.2685 116.364 94.8584 109.217C91.1306 111.31 86.8349 112.5 82.2773 112.5Z" fill="#3F232D"/>
<path fill-rule="evenodd" clip-rule="evenodd" d="M114.719 71.8496C115.754 70.7212 116.926 69.7026 117.693 69.1055L118.307 69.8945C117.574 70.4641 116.446 71.4456 115.456 72.5254C114.961 73.0651 114.508 73.6219 114.157 74.1572C113.962 74.4552 113.804 74.7377 113.688 75H116.5V76H112.391L112.51 75.4023C112.628 74.8125 112.935 74.1977 113.321 73.6084C113.711 73.0137 114.201 72.4139 114.719 71.8496Z" fill="#B86B5E"/>
<path fill-rule="evenodd" clip-rule="evenodd" d="M49.0977 72.1963C48.2827 71.0879 47.2999 70.0069 46.6465 69.3535L47.3535 68.6465C48.0335 69.3264 49.0516 70.4452 49.9033 71.6035C50.329 72.1824 50.7211 72.782 51.0088 73.3486C51.2901 73.9027 51.5 74.4803 51.5 75V75.4238L48.082 75.9932L47.918 75.0068L50.4355 74.5869C50.3744 74.3641 50.2692 74.1011 50.1172 73.8018C49.8633 73.3018 49.5053 72.7506 49.0977 72.1963Z" fill="#B86B5E"/>
<path fill-rule="evenodd" clip-rule="evenodd" d="M83.3604 101.56C81.8956 101.406 80.5559 100.881 79.7568 100.438L80.2432 99.5625C80.9441 99.9519 82.1546 100.428 83.4648 100.565C84.7736 100.703 86.1198 100.499 87.1797 99.6162L87.8203 100.384C86.4803 101.5 84.8265 101.714 83.3604 101.56Z" fill="#B86B5E"/>
<path fill-rule="evenodd" clip-rule="evenodd" d="M114.719 71.8496C115.754 70.7212 116.926 69.7026 117.693 69.1055L118.307 69.8945C117.574 70.4641 116.446 71.4456 115.456 72.5254C114.961 73.0651 114.508 73.6219 114.157 74.1572C113.962 74.4552 113.804 74.7377 113.688 75H116.5V76H112.391L112.51 75.4023C112.628 74.8125 112.935 74.1977 113.321 73.6084C113.711 73.0137 114.201 72.4139 114.719 71.8496ZM49.0977 72.1963C48.2827 71.0879 47.2999 70.0069 46.6465 69.3535L47.3535 68.6465C48.0335 69.3264 49.0516 70.4452 49.9033 71.6035C50.329 72.1824 50.7211 72.782 51.0088 73.3486C51.2901 73.9027 51.5 74.4803 51.5 75V75.4238L48.082 75.9932L47.918 75.0068L50.4355 74.5869C50.3744 74.3641 50.2692 74.1011 50.1172 73.8018C49.8633 73.3018 49.5053 72.7506 49.0977 72.1963ZM83.3604 101.56C81.8956 101.406 80.5559 100.881 79.7568 100.438L80.2432 99.5625C80.9441 99.9519 82.1546 100.428 83.4648 100.565C84.7736 100.703 86.1198 100.499 87.1797 99.6162L87.8203 100.384C86.4803 101.5 84.8265 101.714 83.3604 101.56ZM80.9395 82.7031C81.1687 80.2434 81.4183 77.3808 81.501 75.4785L82.5 75.5215C82.416 77.4524 82.1645 80.3401 81.9355 82.7969C81.8563 83.6471 81.7794 84.4481 81.7129 85.1416C81.6832 85.4508 81.6557 85.7387 81.6309 86C81.5905 86.4244 81.5571 86.7791 81.5342 87.042C81.5227 87.1733 81.5137 87.2804 81.5078 87.3613C81.5049 87.4019 81.5033 87.4348 81.502 87.46L81.501 87.4785C81.5051 87.488 81.5136 87.5057 81.5303 87.5312C81.5711 87.5935 81.6427 87.6769 81.75 87.7666C81.9641 87.9455 82.2852 88.1227 82.6787 88.2168C83.4393 88.3985 84.5136 88.2793 85.6465 87.1465L86.3535 87.8535C84.9867 89.2204 83.5608 89.4557 82.4463 89.1895C81.9023 89.0594 81.4411 88.8112 81.1084 88.5332C80.9425 88.3945 80.7989 88.2403 80.6934 88.0791C80.5935 87.9265 80.4999 87.7247 80.5 87.5C80.5001 87.3441 80.557 86.7336 80.6357 85.9062C80.659 85.6614 80.6845 85.3935 80.7119 85.1074L80.7168 85.0488L80.7178 85.0449C80.7842 84.3518 80.8603 83.5522 80.9395 82.7031Z" fill="#B86B5E"/>
<path d="M81.501 75.4785C81.4183 77.3808 81.1687 80.2434 80.9395 82.7031C80.8603 83.5522 80.7842 84.3518 80.7178 85.0449L80.7168 85.0488L80.7119 85.1074C80.6845 85.3935 80.659 85.6614 80.6357 85.9062C80.557 86.7336 80.5001 87.3441 80.5 87.5C80.4999 87.7247 80.5935 87.9265 80.6934 88.0791C80.7989 88.2403 80.9425 88.3945 81.1084 88.5332C81.4411 88.8112 81.9023 89.0594 82.4463 89.1895C83.5608 89.4557 84.9867 89.2204 86.3535 87.8535L85.6465 87.1465C84.5136 88.2793 83.4393 88.3985 82.6787 88.2168C82.2852 88.1227 81.9641 87.9455 81.75 87.7666C81.6427 87.6769 81.5711 87.5935 81.5303 87.5312C81.5136 87.5057 81.5051 87.488 81.501 87.4785L81.502 87.46C81.5033 87.4348 81.5049 87.4019 81.5078 87.3613C81.5137 87.2804 81.5227 87.1733 81.5342 87.042C81.5571 86.7791 81.5905 86.4244 81.6309 86C81.6557 85.7387 81.6832 85.4508 81.7129 85.1416C81.7794 84.4481 81.8563 83.6471 81.9355 82.7969C82.1645 80.3401 82.416 77.4524 82.5 75.5215L81.501 75.4785Z" fill="#B86B5E"/>
<path d="M96.5 72.7002C96.5 74.9093 95.6046 76.7002 94.5 76.7002C93.3954 76.7002 92.5 74.9093 92.5 72.7002C92.5 70.4911 93.3954 68.7002 94.5 68.7002C95.6046 68.7002 96.5 70.4911 96.5 72.7002Z" fill="#3F232D"/>
<path d="M73.5 72.7002C73.5 74.9093 72.6046 76.7002 71.5 76.7002C70.3954 76.7002 69.5 74.9093 69.5 72.7002C69.5 70.4911 70.3954 68.7002 71.5 68.7002C72.6046 68.7002 73.5 70.4911 73.5 72.7002Z" fill="#3F232D"/>
<path fill-rule="evenodd" clip-rule="evenodd" d="M83.5967 96.6963C80.2374 96.7048 76.8231 95.7859 74.6973 94.9355L75.0684 94.0078C77.1092 94.8242 80.3947 95.7044 83.5938 95.6963C86.8015 95.6881 89.7965 94.7917 91.4619 92.2012L92.3037 92.7422C90.3691 95.7516 86.9472 96.6878 83.5967 96.6963Z" fill="#B86B5E"/>
<path d="M97.5 157C104.807 152.129 114.833 138.667 119 132.5C126.5 135.333 140.9 141.1 144.5 143.5C148.1 145.9 151 156.5 150.5 163.5L82 168L13 163.5C13 152.7 17.8333 144.667 20 142.5L46.5 131C47.3333 132.667 51.5 141.2 55.5 150C60.5 161 87 164 97.5 157Z" fill="#D2CDC8"/>
<path d="M88.5 43.9999L89.5 42.9999L96.0004 29.9999C93.3338 26.6665 81.7004 20.5999 68.5004 26.9999C52.0004 34.9999 45.6491 48.6572 44.0004 57.9999C41.0004 74.9999 35.9999 73.9198 35.9999 87.9999C35.9999 98.9999 41.0004 107 41.0004 113.5C41.0004 121.406 29.5623 129.971 32.9997 142C38.1435 160 35.5001 156 37.0001 164.5H47.0004C44.2004 159.3 46.3333 155 47.5 153C52.5001 147.833 61.7 131.1 54.5 113.5C45.5 91.4999 47.5 84.9999 50.5 81.4999C53.5 77.9999 59 78.4999 66 57.9999C70.6335 44.4304 82.6667 42.6665 88.5 43.9999Z" fill="#694E40"/>
<path d="M109 75C108.2 73.8 107.333 67.1667 107 64C111 65 118.1 67.3 114.5 68.5C110 70 110 76.5 109 75Z" fill="#301F14"/>
<path d="M89.5 45.0001V43.0001L95.5 30.5001C98 29.5001 104.6 29.2001 111 36.0001C119 44.5001 123 58.0001 127.5 80.5001C131.1 98.5001 121 127.5 113.5 130.5L107 127.5C108.667 126.333 117.5 121.2 119.5 110C122 96.0001 121.5 84.5001 119.5 79.5001C117.5 74.5001 111 67.5001 107 66.5001C104.202 65.8005 93 51.1668 89.5 45.0001Z" fill="#694E40"/>
<path d="M47.7108 107.051C41.0777 89.9661 44.7845 86.1695 47.7108 83.322L51.6126 80C47.7108 85.6949 55.5143 118.915 60.3916 130.305C65.2688 141.695 57.9529 146.441 53.0757 153.085C49.1739 158.4 49.4991 162.576 50.1494 164H46.2476C42.8336 156.881 49.6617 150.712 53.0757 144.542C56.4898 138.373 56.002 128.407 47.7108 107.051Z" fill="#927962"/>
<path d="M89.4037 64.0449C88.6738 64.1417 88 63.5801 88 62.8296V61.7219C88 61.4253 88.2146 61.1727 88.5036 61.1384C92.3568 60.6812 95.3081 61.5029 95.3081 61.5029C96.5868 61.7629 100.085 63.1573 101.927 65.4879C102.15 65.7704 101.821 66.1177 101.5 65.961C99.5226 64.995 95.0725 63.293 89.4037 64.0449Z" fill="#602920"/>
<path d="M74.5963 64.0449C75.3262 64.1417 76 63.5801 76 62.8296V61.7219C76 61.4253 75.7854 61.1727 75.4964 61.1384C71.6432 60.6812 68.6919 61.5029 68.6919 61.5029C67.4132 61.7629 63.9153 63.1573 62.0732 65.4879C61.85 65.7704 62.179 66.1177 62.4999 65.961C64.4774 64.995 68.9275 63.293 74.5963 64.0449Z" fill="#602920"/>
<path d="M93.5 149.5C99.5 143.9 103 131.5 104 126C116.333 129.5 142 138.1 146 144.5C150 150.9 150.667 159.833 150.5 163.5H89.5L88 153.5L93.5 149.5Z" fill="#9BBECB"/>
<path d="M66.5002 146.5C65.7002 144.5 63.5002 131.333 62.5002 125C56.6668 127.333 42.6 133 33 137C21 142 20.0002 141 16.0002 148.5C12.8002 154.5 13.0002 161.333 13.5002 164H69.0002C71.0002 161.6 71.1668 154 71.0002 150.5C69.8335 150 67.3002 148.5 66.5002 146.5Z" fill="#9BBECB"/>
<path d="M55 126C56.2 123.6 62.1667 122.667 65 122.5C64 123 64 123.5 63.5 131C63 138.5 70.5 154.5 68 152C65.5 149.5 63.5 149.5 61.5 149.5C59.9 149.5 54.8333 152.167 52.5 153.5C52.6667 152.667 53.2 150.2 54 147C55 143 53.5 129 55 126Z" fill="#9BBECB"/>
<path d="M65 122.5C62.1667 122.667 56.2 123.6 55 126C53.5 129 55 143 54 147C53.2 150.2 52.6667 152.667 52.5 153.5C54.8333 152.167 59.9 149.5 61.5 149.5C63.5 149.5 65.5 149.5 68 152" stroke="#6B91A3"/>
<path d="M95 144.5C94.6 146.5 91.1667 150.333 89.5 152L91 153.5C91.5 153.667 93 153.6 95 152C97 150.4 105.167 152.667 109 154C107.5 152 107.5 149.5 107.5 144.5C107.5 139.5 111 129 107.5 126C104.7 123.6 101 123.667 99.5 124C98.1667 130 95.4 142.5 95 144.5Z" fill="#9BBECB"/>
<path d="M89.5 152L91 153.5C91.5 153.667 93 153.6 95 152C97 150.4 105.167 152.667 109 154C107.5 152 107.5 149.5 107.5 144.5C107.5 139.5 111 129 107.5 126C104.7 123.6 101 123.667 99.5 124" stroke="#6B91A3"/>
</g>
<defs>
<clipPath id="clip0_193_5631">
<rect width="164" height="164" rx="82" fill="white"/>
</clipPath>
</defs>
</svg>
