<svg width="164" height="164" viewBox="0 0 164 164" fill="none" xmlns="http://www.w3.org/2000/svg">
<g clip-path="url(#clip0_193_5650)">
<rect width="164" height="164" rx="82" fill="#E3F2FD"/>
<path d="M96.5121 28.8202C93.7969 25.4824 81.9517 19.4075 68.5113 25.8162C51.7108 33.8269 45.2438 47.5028 43.565 56.858C40.5104 73.8809 35.5 73.9009 35.5 88C35.5 99.0149 40 107.491 40 114C40 120.944 31.5491 126.83 31.7101 136.685C25.1744 139.435 20.0702 142.049 19 142.5C16.149 143.702 12.5 158.5 12 162.5H151.5C152 155.5 147.055 146.505 144 142.5L115 130.5C122.637 127.496 132.251 97.4126 128.585 79.3883C124.003 56.858 119.931 43.3398 111.785 34.8283C105.268 28.0191 98.5481 28.3195 96.0026 29.3209" stroke="black" stroke-width="3"/>
<path d="M39 92.5L52 64L104.5 52.5L124.5 86L117.5 122L109.5 139.5H52L39 92.5Z" fill="#CEA071"/>
<path d="M47 104.5C40.2 86.5 49.8333 75.3333 55.5 72L53 87.5C49 93.5 55.5 117 60.5 129C65.5 141 58 146 53 153C49 158.6 49.3333 163 50 164.5H46C42.5 157 49.5 150.5 53 144C56.5 137.5 55.5 127 47 104.5Z" fill="#CEA071"/>
<path fill-rule="evenodd" clip-rule="evenodd" d="M82.25 27.2002C98.9566 27.2002 112.5 40.7436 112.5 57.4502L111.511 65.8604C116.967 63.2558 125.114 62.2823 121.777 76C119.321 86.0995 113.154 89.4777 107.79 90.0752C106.795 97.8137 102.395 104.424 96.1797 108.422L95.5723 108.801L95.6396 109.786C96.0245 114.852 97.1181 121.867 98.8057 123.981L143.5 143C146.5 147 152 157.4 150 163V166H13V163C14.1667 157.167 17.2 144.2 20 143C22.6815 141.851 50.3381 130.064 64.6787 123.798C65.5078 121.89 66.5237 118.979 67.2412 115.729L67.3809 115.075C75.5547 115.576 90.2685 116.364 94.8584 109.217C91.1306 111.31 86.8349 112.5 82.2773 112.5C77.237 112.5 72.5171 111.045 68.5312 108.521L68.1475 108.273L67.5811 107.891C61.7865 103.852 57.7167 97.4801 56.7646 90.0752C51.4009 89.4777 45.235 86.0995 42.7783 76C39.4533 62.3305 47.5308 63.2483 52.9863 65.832L52 57.4502C52 40.7436 65.5434 27.2002 82.25 27.2002ZM79.7568 100.438C80.5559 100.881 81.8956 101.406 83.3604 101.56C84.8265 101.714 86.4803 101.5 87.8203 100.384L87.1797 99.6162C86.1198 100.499 84.7736 100.703 83.4648 100.565C82.3185 100.445 81.2485 100.066 80.5293 99.7119L80.2432 99.5625L79.7568 100.438ZM91.4619 92.2012C89.7965 94.7917 86.8015 95.6881 83.5938 95.6963L82.9941 95.6875C82.9847 95.6872 82.9753 95.6859 82.9658 95.6855C82.1465 95.659 81.3273 95.5786 80.5303 95.46C78.6087 95.1736 76.8165 94.667 75.4658 94.1611L75.0684 94.0078L74.6973 94.9355C76.6903 95.7327 79.8159 96.5905 82.9668 96.6875L83.5967 96.6963C85.1127 96.6924 86.6431 96.4978 88.0439 96.0078C89.7391 95.4151 91.2445 94.3898 92.3037 92.7422L91.4619 92.2012ZM81.501 75.4785C81.4183 77.3808 81.1687 80.2434 80.9395 82.7031C80.8603 83.5522 80.7842 84.3518 80.7178 85.0449L80.7168 85.0488L80.7119 85.1074C80.6845 85.3935 80.659 85.6614 80.6357 85.9062C80.557 86.7336 80.5001 87.3441 80.5 87.5C80.4999 87.7247 80.5935 87.9265 80.6934 88.0791C80.7989 88.2403 80.9425 88.3945 81.1084 88.5332C81.4411 88.8112 81.9023 89.0594 82.4463 89.1895C83.5608 89.4557 84.9867 89.2204 86.3535 87.8535L85.6465 87.1465C84.5136 88.2793 83.4393 88.3985 82.6787 88.2168C82.2852 88.1227 81.9641 87.9455 81.75 87.7666C81.6427 87.6769 81.5711 87.5935 81.5303 87.5312C81.5136 87.5057 81.5051 87.488 81.501 87.4785L81.502 87.46C81.5033 87.4348 81.5049 87.4019 81.5078 87.3613C81.5137 87.2804 81.5227 87.1733 81.5342 87.042C81.5571 86.7791 81.5905 86.4244 81.6309 86C81.6557 85.7387 81.6832 85.4508 81.7129 85.1416C81.7794 84.4481 81.8563 83.6471 81.9355 82.7969C82.1645 80.3401 82.416 77.4524 82.5 75.5215L81.501 75.4785ZM71.5 68.7002C70.3954 68.7002 69.5 70.4911 69.5 72.7002C69.5 74.9093 70.3954 76.7002 71.5 76.7002C72.6046 76.7002 73.5 74.9093 73.5 72.7002C73.5 70.4911 72.6046 68.7002 71.5 68.7002ZM94.5 68.7002C93.3954 68.7002 92.5 70.4911 92.5 72.7002C92.5 74.9093 93.3954 76.7002 94.5 76.7002C95.6046 76.7002 96.5 74.9093 96.5 72.7002C96.5 70.4911 95.6046 68.7002 94.5 68.7002ZM117.693 69.1055C116.926 69.7026 115.754 70.7212 114.719 71.8496C114.201 72.4139 113.711 73.0137 113.321 73.6084C112.935 74.1977 112.628 74.8125 112.51 75.4023L112.391 76H116.5V75H113.688C113.804 74.7377 113.962 74.4552 114.157 74.1572C114.508 73.6219 114.961 73.0651 115.456 72.5254C116.446 71.4456 117.574 70.4641 118.307 69.8945L117.693 69.1055ZM46.6465 69.3535C47.2999 70.0069 48.2827 71.0879 49.0977 72.1963C49.5053 72.7506 49.8633 73.3018 50.1172 73.8018C50.2692 74.1011 50.3744 74.3641 50.4355 74.5869L47.918 75.0068L48.082 75.9932L51.5 75.4238V75C51.5 74.4803 51.2901 73.9027 51.0088 73.3486C50.7211 72.782 50.329 72.1824 49.9033 71.6035C49.0516 70.4452 48.0335 69.3264 47.3535 68.6465L46.6465 69.3535Z" fill="#EFC7AB"/>
<path d="M68.0869 109.983C68.0498 110.556 67.9966 111.129 67.9297 111.7L67.8193 112.554C67.8994 111.986 67.966 111.414 68.0186 110.842L68.0869 109.983Z" fill="#EFC7AB"/>
<path d="M82.2773 112.5C77.0742 112.5 72.2127 110.949 68.1475 108.273C68.1362 110.541 67.8325 112.874 67.3809 115.075V115.076C75.5547 115.577 90.2685 116.364 94.8584 109.217C91.1306 111.31 86.8349 112.5 82.2773 112.5Z" fill="#3F232D"/>
<path fill-rule="evenodd" clip-rule="evenodd" d="M114.719 71.8496C115.754 70.7212 116.926 69.7026 117.693 69.1055L118.307 69.8945C117.574 70.4641 116.446 71.4456 115.456 72.5254C114.961 73.0651 114.508 73.6219 114.157 74.1572C113.962 74.4552 113.804 74.7377 113.688 75H116.5V76H112.391L112.51 75.4023C112.628 74.8125 112.935 74.1977 113.321 73.6084C113.711 73.0137 114.201 72.4139 114.719 71.8496Z" fill="#B86B5E"/>
<path fill-rule="evenodd" clip-rule="evenodd" d="M49.0977 72.1963C48.2827 71.0879 47.2999 70.0069 46.6465 69.3535L47.3535 68.6465C48.0335 69.3264 49.0516 70.4452 49.9033 71.6035C50.329 72.1824 50.7211 72.782 51.0088 73.3486C51.2901 73.9027 51.5 74.4803 51.5 75V75.4238L48.082 75.9932L47.918 75.0068L50.4355 74.5869C50.3744 74.3641 50.2692 74.1011 50.1172 73.8018C49.8633 73.3018 49.5053 72.7506 49.0977 72.1963Z" fill="#B86B5E"/>
<path fill-rule="evenodd" clip-rule="evenodd" d="M83.3604 101.56C81.8956 101.406 80.5559 100.881 79.7568 100.438L80.2432 99.5625C80.9441 99.9519 82.1546 100.428 83.4648 100.565C84.7736 100.703 86.1198 100.499 87.1797 99.6162L87.8203 100.384C86.4803 101.5 84.8265 101.714 83.3604 101.56Z" fill="#B86B5E"/>
<path fill-rule="evenodd" clip-rule="evenodd" d="M114.719 71.8496C115.754 70.7212 116.926 69.7026 117.693 69.1055L118.307 69.8945C117.574 70.4641 116.446 71.4456 115.456 72.5254C114.961 73.0651 114.508 73.6219 114.157 74.1572C113.962 74.4552 113.804 74.7377 113.688 75H116.5V76H112.391L112.51 75.4023C112.628 74.8125 112.935 74.1977 113.321 73.6084C113.711 73.0137 114.201 72.4139 114.719 71.8496ZM49.0977 72.1963C48.2827 71.0879 47.2999 70.0069 46.6465 69.3535L47.3535 68.6465C48.0335 69.3264 49.0516 70.4452 49.9033 71.6035C50.329 72.1824 50.7211 72.782 51.0088 73.3486C51.2901 73.9027 51.5 74.4803 51.5 75V75.4238L48.082 75.9932L47.918 75.0068L50.4355 74.5869C50.3744 74.3641 50.2692 74.1011 50.1172 73.8018C49.8633 73.3018 49.5053 72.7506 49.0977 72.1963ZM83.3604 101.56C81.8956 101.406 80.5559 100.881 79.7568 100.438L80.2432 99.5625C80.9441 99.9519 82.1546 100.428 83.4648 100.565C84.7736 100.703 86.1198 100.499 87.1797 99.6162L87.8203 100.384C86.4803 101.5 84.8265 101.714 83.3604 101.56ZM80.9395 82.7031C81.1687 80.2434 81.4183 77.3808 81.501 75.4785L82.5 75.5215C82.416 77.4524 82.1645 80.3401 81.9355 82.7969C81.8563 83.6471 81.7794 84.4481 81.7129 85.1416C81.6832 85.4508 81.6557 85.7387 81.6309 86C81.5905 86.4244 81.5571 86.7791 81.5342 87.042C81.5227 87.1733 81.5137 87.2804 81.5078 87.3613C81.5049 87.4019 81.5033 87.4348 81.502 87.46L81.501 87.4785C81.5051 87.488 81.5136 87.5057 81.5303 87.5312C81.5711 87.5935 81.6427 87.6769 81.75 87.7666C81.9641 87.9455 82.2852 88.1227 82.6787 88.2168C83.4393 88.3985 84.5136 88.2793 85.6465 87.1465L86.3535 87.8535C84.9867 89.2204 83.5608 89.4557 82.4463 89.1895C81.9023 89.0594 81.4411 88.8112 81.1084 88.5332C80.9425 88.3945 80.7989 88.2403 80.6934 88.0791C80.5935 87.9265 80.4999 87.7247 80.5 87.5C80.5001 87.3441 80.557 86.7336 80.6357 85.9062C80.659 85.6614 80.6845 85.3935 80.7119 85.1074L80.7168 85.0488L80.7178 85.0449C80.7842 84.3518 80.8603 83.5522 80.9395 82.7031Z" fill="#B86B5E"/>
<path d="M81.501 75.4785C81.4183 77.3808 81.1687 80.2434 80.9395 82.7031C80.8603 83.5522 80.7842 84.3518 80.7178 85.0449L80.7168 85.0488L80.7119 85.1074C80.6845 85.3935 80.659 85.6614 80.6357 85.9062C80.557 86.7336 80.5001 87.3441 80.5 87.5C80.4999 87.7247 80.5935 87.9265 80.6934 88.0791C80.7989 88.2403 80.9425 88.3945 81.1084 88.5332C81.4411 88.8112 81.9023 89.0594 82.4463 89.1895C83.5608 89.4557 84.9867 89.2204 86.3535 87.8535L85.6465 87.1465C84.5136 88.2793 83.4393 88.3985 82.6787 88.2168C82.2852 88.1227 81.9641 87.9455 81.75 87.7666C81.6427 87.6769 81.5711 87.5935 81.5303 87.5312C81.5136 87.5057 81.5051 87.488 81.501 87.4785L81.502 87.46C81.5033 87.4348 81.5049 87.4019 81.5078 87.3613C81.5137 87.2804 81.5227 87.1733 81.5342 87.042C81.5571 86.7791 81.5905 86.4244 81.6309 86C81.6557 85.7387 81.6832 85.4508 81.7129 85.1416C81.7794 84.4481 81.8563 83.6471 81.9355 82.7969C82.1645 80.3401 82.416 77.4524 82.5 75.5215L81.501 75.4785Z" fill="#B86B5E"/>
<path d="M96.5 72.7002C96.5 74.9093 95.6046 76.7002 94.5 76.7002C93.3954 76.7002 92.5 74.9093 92.5 72.7002C92.5 70.4911 93.3954 68.7002 94.5 68.7002C95.6046 68.7002 96.5 70.4911 96.5 72.7002Z" fill="#3F232D"/>
<path d="M73.5 72.7002C73.5 74.9093 72.6046 76.7002 71.5 76.7002C70.3954 76.7002 69.5 74.9093 69.5 72.7002C69.5 70.4911 70.3954 68.7002 71.5 68.7002C72.6046 68.7002 73.5 70.4911 73.5 72.7002Z" fill="#3F232D"/>
<path fill-rule="evenodd" clip-rule="evenodd" d="M83.5967 96.6963C80.2374 96.7048 76.8231 95.7859 74.6973 94.9355L75.0684 94.0078C77.1092 94.8242 80.3947 95.7044 83.5938 95.6963C86.8015 95.6881 89.7965 94.7917 91.4619 92.2012L92.3037 92.7422C90.3691 95.7516 86.9472 96.6878 83.5967 96.6963Z" fill="#B86B5E"/>
<path d="M112.86 85.5566C114.381 85.4052 115.915 85.5586 117.373 86.0059L117.695 86.1094C117.869 86.1685 118.042 86.2322 118.214 86.2998L118.725 86.5156C120.592 87.3572 122.199 88.6808 123.381 90.3477L123.611 90.6855C124.736 92.3974 125.382 94.3763 125.485 96.417L125.499 96.8262C125.53 98.874 125.013 100.89 124.006 102.668L123.798 103.021C122.725 104.766 121.208 106.191 119.404 107.151L119.04 107.337C117.199 108.235 115.154 108.623 113.116 108.466L112.709 108.428C110.674 108.198 108.74 107.428 107.104 106.203L106.781 105.952C105.584 104.986 104.596 103.795 103.873 102.451C103.947 102.343 104.023 102.236 104.096 102.127C104.718 103.329 105.554 104.411 106.567 105.316L106.82 105.535C107.441 106.057 108.119 106.512 108.843 106.89L109.156 107.047C110.953 107.913 112.95 108.282 114.938 108.114C116.925 107.947 118.832 107.249 120.458 106.094C122.084 104.939 123.371 103.368 124.185 101.547C124.998 99.7254 125.308 97.7192 125.082 95.7373C124.856 93.7553 124.103 91.8702 122.9 90.2783C121.698 88.6865 120.092 87.4461 118.247 86.6865C116.557 85.9906 114.724 85.7223 112.91 85.9004L112.86 85.5566ZM47.1631 86.1592C48.7571 85.595 50.4559 85.3902 52.1387 85.5576L52.0898 85.9004C50.7659 85.7704 49.4319 85.8781 48.1504 86.2168L47.8633 86.2969C47.5088 86.4008 47.1585 86.5218 46.8145 86.6611L46.4717 86.8066C44.5537 87.6587 42.9152 89.0348 41.7441 90.7764C40.5731 92.5181 39.9168 94.5555 39.8516 96.6533C39.7904 98.62 40.2511 100.565 41.1826 102.293L41.375 102.636C42.3691 104.334 43.7932 105.736 45.501 106.704L45.8467 106.892C47.7081 107.861 49.8054 108.286 51.8975 108.117C53.8585 107.959 55.7403 107.285 57.3535 106.167L57.6729 105.938C58.6902 105.178 59.5655 104.254 60.2656 103.209L60.5547 102.754C60.6067 102.667 60.6573 102.58 60.707 102.492C60.7793 102.596 60.8531 102.7 60.9268 102.803C60.2042 104.039 59.2559 105.134 58.125 106.026L57.8799 106.215C56.1459 107.509 54.0817 108.289 51.9248 108.463C49.9026 108.626 47.8756 108.251 46.0488 107.38L45.6865 107.199C43.7674 106.199 42.1696 104.678 41.0762 102.811C40.0512 101.06 39.5084 99.0717 39.5 97.0479L39.5059 96.6426C39.569 94.6149 40.167 92.6422 41.2363 90.9238L41.4561 90.583C42.588 88.8994 44.1443 87.5475 45.9639 86.6611L46.3311 86.4902C46.4678 86.4295 46.6055 86.3716 46.7441 86.3164L47.1631 86.1592Z" fill="#D9D9D9" stroke="#D9D9D9"/>
<path d="M124 134.5L112 129.5C112 129.5 103 151.5 80 151.5C57 151.5 50.5 129.5 50.5 129.5C43.7234 132.475 41.5 133 38.5 135.5C41.0829 142.793 40.2964 155.017 41.4234 164H119.5C117 158.5 119.5 146.5 124 134.5Z" fill="#3C372B"/>
<path fill-rule="evenodd" clip-rule="evenodd" d="M63.058 63.4892C62.5976 63.7954 62.984 64.6807 63.5314 64.6021C67.6143 64.0164 71.3197 64.6631 73.8966 65.2692C75.6169 65.6739 77.2278 64.6065 77.5035 62.8608C77.5725 62.4244 77.2746 62.0147 76.8381 61.9458L75.6528 61.7586C73.7724 61.4615 71.2762 61.0506 67.6486 61.5967C65.9929 61.8459 64.4522 62.562 63.058 63.4892Z" fill="#A47147"/>
<path fill-rule="evenodd" clip-rule="evenodd" d="M102.963 63.5291C103.415 63.8488 103.002 64.7223 102.458 64.6278C98.3937 63.9225 94.6708 64.4601 92.0773 64.9904C90.3458 65.3444 88.767 64.2302 88.5426 62.4772C88.4865 62.0389 88.7963 61.6382 89.2345 61.5821L90.4248 61.4297C92.3132 61.1879 94.8204 60.8505 98.4304 61.5028C100.078 61.8004 101.597 62.5614 102.963 63.5291Z" fill="#A47147"/>
<path d="M88.5 43.9999L89.5 42.9999L96.0004 29.9999C93.3338 26.6665 81.7004 20.5999 68.5004 26.9999C52.0004 34.9999 45.6491 48.6572 44.0004 57.9999C41.0004 74.9999 35.9999 73.9198 35.9999 87.9999C35.9999 98.9999 41.0004 107 41.0004 113.5C41.0004 121.406 29.5623 129.971 32.9997 142C38.1435 160 35.5001 156 37.0001 164.5H47.0004C44.2004 159.3 46.3333 155 47.5 153C52.5001 147.833 61.7 131.1 54.5 113.5C45.5 91.4999 47.5 84.9999 50.5 81.4999C53.5 77.9999 59 78.4999 66 57.9999C70.6335 44.4304 82.6667 42.6665 88.5 43.9999Z" fill="#EED1AB"/>
<path d="M109 75C108.2 73.8 107.333 67.1667 107 64C111 65 118.1 67.3 114.5 68.5C110 70 110 76.5 109 75Z" fill="#CEA071"/>
<path d="M89.5 45.0001V43.0001L95.5 30.5001C98 29.5001 104.6 29.2001 111 36.0001C119 44.5001 123 58.0001 127.5 80.5001C131.1 98.5001 121 127.5 113.5 130.5L107 127.5C108.667 126.333 117.5 121.2 119.5 110C122 96.0001 121.5 84.5001 119.5 79.5001C117.5 74.5001 111 67.5001 107 66.5001C104.202 65.8005 93 51.1668 89.5 45.0001Z" fill="#EED1AB"/>
<path d="M47.7108 107.051C41.0777 89.9661 44.7845 86.1695 47.7108 83.322L51.6126 80C47.7108 85.6949 55.5143 118.915 60.3916 130.305C65.2688 141.695 57.9529 146.441 53.0757 153.085C49.1739 158.4 49.4991 162.576 50.1494 164H46.2476C42.8336 156.881 49.6617 150.712 53.0757 144.542C56.4898 138.373 56.002 128.407 47.7108 107.051Z" fill="#DEB789"/>
<path d="M147.961 152.488L148.658 152.527C151.293 158.35 150.61 162.671 148.926 167.197L147.059 171.672L145.527 170.491L144.174 170.934L143.814 169.311L141.83 169.606V166.95L141.018 166.359L141.199 164.293C140.838 164.244 140.027 164.028 139.666 163.555C139.215 162.965 140.387 160.161 140.117 160.014C139.9 159.896 139.365 158.095 139.125 157.21L140.658 156.915L141.379 155.734C141.091 155.616 140.718 154.209 140.568 153.521H142.191V149.241C143.904 149.536 144.445 151.75 144.445 150.717V148.356C145.238 148.592 147.12 151.209 147.961 152.488Z" fill="#F8DCA8"/>
<path d="M143.904 158.39C143.76 157.918 144.144 157.505 144.355 157.357C144.445 157.357 144.571 157.269 144.355 156.915C144.084 156.472 144.896 156.324 145.256 155.439C145.617 154.554 145.887 155.439 146.609 155.439C147.33 155.439 147.059 155.734 147.781 155.439C148.502 155.144 148.502 156.177 149.314 156.915C150.125 157.653 149.674 158.981 150.035 160.309C150.323 161.371 149.674 162.227 149.314 162.522C150.035 164.441 148.502 164.293 148.141 164.736C147.781 165.179 147.51 164.293 147.059 164.736C146.609 165.179 146.428 163.851 145.887 164.293C145.455 164.647 145.046 163.851 144.896 163.408C143.814 163.26 144.986 161.489 144.355 161.489C143.723 161.489 143.904 160.604 143.633 159.719C143.363 158.833 144.084 158.981 143.904 158.39Z" fill="#BDA589"/>
<path fill-rule="evenodd" clip-rule="evenodd" d="M144.395 148.076C144.787 148.397 145.376 148.916 145.868 149.43C146.114 149.687 146.338 149.945 146.502 150.179C146.583 150.296 146.653 150.41 146.702 150.519C146.718 150.553 146.733 150.59 146.746 150.627C146.791 150.51 146.845 150.404 146.91 150.311L146.994 150.191L147.048 150.349C147.181 150.736 147.416 151.325 147.688 151.829C147.824 152.082 147.968 152.309 148.11 152.48C148.254 152.652 148.391 152.759 148.513 152.784C148.72 152.826 148.906 153.014 149.061 153.266C149.217 153.518 149.347 153.843 149.441 154.179C149.534 154.514 149.594 154.869 149.606 155.183C149.618 155.491 149.585 155.794 149.467 155.986L149.34 155.777C149.403 155.675 149.437 155.479 149.426 155.202C149.416 154.93 149.363 154.612 149.277 154.301C149.19 153.992 149.072 153.698 148.935 153.476C148.797 153.252 148.645 153.108 148.491 153.077C148.325 153.043 148.159 152.905 148.004 152.718C147.847 152.531 147.694 152.286 147.553 152.024C147.308 151.571 147.094 151.055 146.951 150.664C146.762 151.043 146.716 151.637 146.753 152.286C146.794 153.006 146.935 153.744 147.052 154.201L146.886 154.316C146.872 154.262 146.858 154.204 146.844 154.144L146.801 154.184C146.684 153.849 146.468 153.345 146.203 152.926C145.936 152.502 145.634 152.193 145.346 152.193C144.735 152.192 144.033 151.773 143.683 151.509C143.578 152.007 143.557 152.491 143.588 152.94C143.612 153.033 143.626 153.125 143.633 153.207L143.614 153.211C143.72 154.111 144.024 154.836 144.238 155.187L144.174 155.291L144.13 155.421C143.865 155.18 143.436 154.869 143.015 154.72C142.804 154.646 142.599 154.614 142.419 154.647C142.24 154.68 142.091 154.777 141.984 154.953C141.513 155.724 141.005 156.469 140.766 156.808C140.802 156.945 140.848 157.079 140.901 157.21H140.928V157.276C141.142 157.777 141.463 158.234 141.813 158.623C142.287 159.148 142.798 159.534 143.123 159.728L143.077 159.935L143.119 160.154C142.473 160.489 141.999 161.543 141.669 162.774C141.352 163.958 141.179 165.269 141.114 166.145C141.127 166.158 141.144 166.176 141.167 166.196C141.22 166.244 141.296 166.305 141.401 166.379C141.611 166.526 141.931 166.721 142.398 166.956C142.835 167.177 143.449 166.972 144.055 166.601C144.655 166.233 145.226 165.714 145.568 165.35L145.617 165.474L145.707 165.487C145.601 167.393 145.975 168.639 146.477 169.429C146.97 170.204 147.592 170.549 148.025 170.633C148.048 170.596 148.079 170.528 148.116 170.417C148.164 170.275 148.215 170.085 148.268 169.854C148.375 169.393 148.487 168.787 148.595 168.125C148.813 166.802 149.015 165.271 149.135 164.265L149.312 164.322C149.191 165.332 148.988 166.87 148.77 168.202C148.66 168.867 148.547 169.484 148.437 169.958C148.382 170.195 148.328 170.4 148.274 170.56C148.223 170.712 148.165 170.847 148.098 170.913L148.072 170.938L148.042 170.933C147.789 170.892 147.473 170.765 147.15 170.522V171.403C147.157 171.453 147.165 171.503 147.175 171.554C147.26 171.998 147.447 172.442 147.818 172.718L147.743 172.987C147.328 172.678 147.11 172.174 147.008 171.668C146.897 171.656 146.773 171.606 146.645 171.535C146.496 171.452 146.337 171.339 146.181 171.214C145.871 170.965 145.571 170.668 145.388 170.468C144.909 170.675 144.422 170.913 144.111 171.075L144.038 171.113L144.003 171C143.943 170.803 143.898 170.512 143.862 170.184C143.835 169.938 143.813 169.664 143.795 169.379C143.78 169.393 143.765 169.407 143.749 169.418C143.693 169.46 143.624 169.495 143.549 169.525C143.397 169.586 143.205 169.631 143.002 169.664C142.595 169.731 142.132 169.753 141.83 169.753H141.74V166.95H141.807C141.609 166.836 141.452 166.736 141.33 166.65C141.221 166.574 141.139 166.508 141.08 166.454C141.023 166.403 140.98 166.357 140.955 166.316L140.924 166.266L140.929 166.195C140.99 165.299 141.167 163.911 141.504 162.655C141.821 161.471 142.29 160.368 142.955 159.938C142.62 159.723 142.151 159.354 141.712 158.867C141.625 158.771 141.54 158.67 141.456 158.564L141.485 158.831C140.764 159.039 140.263 160.087 139.974 161.197C139.831 161.748 139.743 162.302 139.708 162.751C139.69 162.976 139.686 163.171 139.693 163.324C139.701 163.484 139.72 163.575 139.738 163.615L139.755 163.647C139.797 163.722 139.867 163.794 139.962 163.858C140.069 163.93 140.2 163.987 140.339 164.03C140.617 164.117 140.917 164.146 141.109 164.146V164.441C140.909 164.441 140.597 164.411 140.305 164.32C140.16 164.275 140.016 164.214 139.894 164.131C139.788 164.06 139.69 163.968 139.621 163.846L139.594 163.792C139.544 163.683 139.522 163.521 139.513 163.348C139.504 163.169 139.51 162.952 139.529 162.713C139.567 162.236 139.659 161.656 139.808 161.081C140.104 159.947 140.636 158.788 141.441 158.544C141.199 158.236 140.977 157.887 140.807 157.505H139.252C139.329 157.857 139.444 158.316 139.577 158.731C139.656 158.98 139.741 159.209 139.826 159.388C139.913 159.571 139.993 159.685 140.06 159.729L139.993 160.003C139.88 159.929 139.776 159.763 139.684 159.569C139.589 159.371 139.499 159.125 139.417 158.868C139.273 158.419 139.15 157.921 139.071 157.553L139.039 157.404L139 157.21H140.688C140.644 157.083 140.605 156.953 140.574 156.82L140.551 156.723L140.599 156.655C140.72 156.486 140.951 156.15 141.223 155.739C141.108 155.604 140.971 155.417 140.844 155.197C140.687 154.921 140.539 154.578 140.488 154.209L140.479 154.135C140.465 153.997 140.475 153.869 140.509 153.754C140.542 153.64 140.596 153.547 140.659 153.471C140.785 153.32 140.965 153.213 141.163 153.12C141.362 153.027 141.595 152.942 141.826 152.847L141.83 152.845V149.241C141.83 149.174 141.845 149.112 141.875 149.064C141.902 149.02 141.936 148.997 141.967 148.984C142.028 148.96 142.106 148.964 142.188 148.981C142.355 149.015 142.581 149.111 142.826 149.236C143.243 149.449 143.729 149.753 144.106 150.006C144.099 149.44 144.139 148.799 144.269 148.161L144.302 148L144.395 148.076ZM146.652 170.05C146.428 170.067 146.046 170.196 145.626 170.368C145.799 170.546 146.028 170.762 146.261 170.949C146.412 171.07 146.563 171.178 146.703 171.255C146.798 171.308 146.885 171.345 146.96 171.363C146.916 170.985 146.93 170.627 146.963 170.37C146.859 170.277 146.754 170.171 146.652 170.05ZM145.515 165.754C145.16 166.109 144.651 166.551 144.118 166.878C144.047 166.921 143.976 166.962 143.904 167.001C143.905 167.516 143.918 168.303 143.957 169.051C143.978 169.438 144.004 169.812 144.039 170.132C144.067 170.386 144.099 170.598 144.135 170.753C144.468 170.582 144.956 170.345 145.427 170.145C145.802 169.987 146.173 169.848 146.449 169.787C146.416 169.74 146.384 169.692 146.352 169.642C145.836 168.83 145.456 167.583 145.515 165.754ZM141.92 169.457C142.216 169.453 142.623 169.43 142.984 169.37C143.184 169.337 143.366 169.294 143.506 169.238C143.576 169.21 143.633 169.181 143.674 169.15C143.719 169.117 143.735 169.091 143.739 169.081L143.781 169.127C143.78 169.11 143.779 169.093 143.778 169.076C143.741 168.361 143.727 167.613 143.724 167.093C143.234 167.33 142.738 167.436 142.344 167.238C142.187 167.159 142.046 167.084 141.92 167.014V169.457ZM143.259 152.731C143.145 152.614 142.955 152.555 142.648 152.733L142.585 152.772C142.399 152.894 142.203 152.99 142.01 153.074V153.078H142C141.957 153.097 141.913 153.116 141.87 153.133C141.631 153.232 141.408 153.313 141.212 153.404C141.016 153.496 140.863 153.592 140.766 153.709C140.719 153.766 140.688 153.823 140.671 153.881C140.655 153.937 140.648 154.003 140.657 154.086L140.664 154.145C140.704 154.437 140.827 154.733 140.976 154.995C141.105 155.22 141.247 155.408 141.357 155.533C141.519 155.285 141.69 155.016 141.856 154.744C142.001 154.507 142.193 154.392 142.399 154.354C142.605 154.316 142.831 154.353 143.053 154.431C143.331 154.529 143.61 154.693 143.847 154.864C143.655 154.4 143.469 153.757 143.412 153.019C143.381 152.911 143.331 152.805 143.259 152.731ZM144.409 148.419C144.302 149.016 144.276 149.612 144.289 150.131C144.292 150.133 144.296 150.136 144.299 150.138L144.29 150.173C144.308 150.784 144.38 151.285 144.439 151.552L144.346 151.607C144.658 151.767 145.018 151.897 145.346 151.897C145.707 151.897 146.052 152.277 146.329 152.714C146.466 152.931 146.59 153.169 146.696 153.398C146.64 153.057 146.594 152.684 146.573 152.313C146.545 151.813 146.56 151.293 146.671 150.864H146.609C146.609 150.839 146.599 150.785 146.558 150.695C146.519 150.61 146.46 150.512 146.383 150.401C146.229 150.182 146.014 149.933 145.771 149.679C145.324 149.212 144.794 148.739 144.409 148.419ZM142.165 149.273C142.089 149.258 142.038 149.26 142.01 149.271V152.768C142.183 152.691 142.356 152.604 142.518 152.498L142.587 152.455C142.928 152.257 143.179 152.302 143.354 152.48C143.368 152.495 143.382 152.511 143.395 152.527C143.397 152.119 143.443 151.69 143.55 151.252L143.586 151.103L143.674 151.175L143.734 151.223C143.861 151.32 144.042 151.442 144.25 151.556C144.195 151.278 144.138 150.847 144.115 150.332C143.732 150.071 143.211 149.743 142.772 149.518C142.529 149.394 142.316 149.304 142.165 149.273Z" fill="#95785C"/>
<path d="M148.926 164.103C148.803 164.305 148.601 164.583 148.398 164.75C148.298 164.833 148.189 164.895 148.085 164.898C148.008 164.901 147.933 164.868 147.869 164.791C147.775 164.923 147.647 165.06 147.517 165.109C147.432 165.14 147.339 165.137 147.253 165.057C147.168 164.977 147.105 164.835 147.064 164.635L147.235 164.542C147.267 164.696 147.307 164.768 147.342 164.801C147.378 164.833 147.422 164.841 147.477 164.821C147.592 164.778 147.722 164.624 147.807 164.484L147.881 164.364L147.943 164.5C147.977 164.574 148.021 164.605 148.082 164.603C148.147 164.601 148.227 164.56 148.317 164.486C148.496 164.338 148.682 164.085 148.799 163.894L148.926 164.103Z" fill="#95785C"/>
<path d="M146.216 160.865C146.132 160.979 146.041 161.16 146.016 161.335C146.004 161.417 146.007 161.494 146.03 161.565C146.053 161.637 146.101 161.721 146.198 161.8L146.268 161.858L146.243 161.979C146.201 162.189 146.182 162.461 146.233 162.642C146.256 162.724 146.294 162.79 146.358 162.827C146.424 162.865 146.527 162.877 146.679 162.821L146.889 162.745L146.775 163.043C146.741 163.133 146.709 163.24 146.691 163.344C146.672 163.45 146.67 163.537 146.683 163.597C146.693 163.647 146.716 163.696 146.779 163.725C146.846 163.757 146.958 163.763 147.132 163.706L147.167 163.995C146.981 164.056 146.837 164.06 146.729 164.009C146.622 163.959 146.552 163.855 146.518 163.717V163.998C146.33 163.998 146.052 163.937 145.835 163.744C145.726 163.646 145.626 163.51 145.566 163.321C145.513 163.157 145.494 162.964 145.516 162.744C145.427 162.648 145.332 162.494 145.299 162.282C145.256 162.003 145.328 161.691 145.559 161.376L145.674 161.603C145.472 161.878 145.455 162.083 145.474 162.209C145.497 162.354 145.578 162.474 145.657 162.538L145.722 162.591L145.704 162.706C145.673 162.912 145.688 163.066 145.726 163.185C145.765 163.306 145.832 163.405 145.921 163.485C146.1 163.644 146.343 163.702 146.515 163.703C146.514 163.699 146.513 163.695 146.512 163.691C146.483 163.55 146.494 163.395 146.518 163.262C146.524 163.224 146.532 163.188 146.541 163.151C146.448 163.161 146.367 163.145 146.298 163.105C146.185 163.039 146.111 162.914 146.069 162.765C146.002 162.525 146.017 162.23 146.052 162.003C145.967 161.917 145.907 161.816 145.87 161.701C145.824 161.556 145.82 161.405 145.84 161.268C145.878 161.002 146.003 160.77 146.1 160.638L146.216 160.865Z" fill="#95785C"/>
<path d="M148.209 160.919C148.316 160.888 148.432 160.94 148.552 161.072C148.66 161.19 148.731 161.268 148.772 161.317C148.793 161.341 148.808 161.361 148.819 161.375C148.821 161.378 148.834 161.395 148.843 161.418C148.845 161.424 148.852 161.442 148.855 161.466C148.859 161.493 148.861 161.548 148.836 161.597C148.813 161.639 148.785 161.646 148.775 161.647C148.763 161.649 148.754 161.647 148.75 161.646C148.736 161.642 148.724 161.633 148.721 161.63C148.715 161.626 148.709 161.621 148.702 161.616C148.69 161.605 148.675 161.591 148.658 161.576C148.625 161.545 148.584 161.506 148.546 161.468L148.558 161.434C148.528 161.401 148.493 161.362 148.452 161.317C148.356 161.213 148.288 161.196 148.241 161.209C148.194 161.223 148.149 161.273 148.108 161.364C148.022 161.551 147.975 161.858 147.961 162.094L147.954 162.211L147.882 162.226C147.619 162.28 147.518 162.462 147.48 162.635C147.439 162.825 147.463 163.05 147.503 163.202L147.42 163.26L147.337 163.318C147.287 163.126 147.248 162.82 147.31 162.535C147.371 162.257 147.52 162.034 147.79 161.951C147.813 161.707 147.865 161.403 147.963 161.187C148.022 161.059 148.103 160.95 148.209 160.919Z" fill="#95785C"/>
<path d="M149.758 161.393C149.7 161.649 149.592 162.018 149.458 162.282C149.391 162.413 149.31 162.532 149.218 162.589C149.153 162.63 149.084 162.637 149.016 162.604C148.966 162.786 148.89 162.99 148.791 163.118C148.724 163.204 148.639 163.264 148.542 163.243C148.446 163.222 148.357 163.126 148.274 162.965L148.412 162.775C148.478 162.903 148.53 162.943 148.566 162.95C148.601 162.958 148.638 162.94 148.679 162.886C148.767 162.773 148.842 162.544 148.883 162.354L148.922 162.168L149.02 162.282C149.068 162.338 149.11 162.341 149.154 162.314C149.204 162.282 149.261 162.207 149.319 162.092C149.436 161.864 149.535 161.531 149.589 161.29L149.758 161.393Z" fill="#95785C"/>
<path d="M143.762 159.97C143.787 160.108 143.828 160.187 143.876 160.233C143.926 160.281 143.991 160.303 144.067 160.299C144.171 160.294 144.284 160.242 144.382 160.177C144.434 160.123 144.487 160.086 144.53 160.065L144.599 160.337C144.561 160.371 144.516 160.406 144.467 160.439C144.437 160.474 144.406 160.516 144.381 160.569C144.328 160.681 144.293 160.843 144.335 161.08C144.355 161.193 144.389 161.261 144.426 161.304C144.465 161.348 144.515 161.373 144.574 161.38C144.694 161.394 144.83 161.331 144.918 161.265L145.013 161.514L144.5 162.204C144.459 162.373 144.466 162.479 144.486 162.548C144.509 162.624 144.559 162.691 144.64 162.741C144.805 162.843 145.045 162.846 145.222 162.812L145.243 163.105C145.057 163.141 144.781 163.144 144.576 163.017C144.473 162.953 144.375 162.848 144.324 162.676C144.279 162.523 144.279 162.342 144.322 162.142L144.343 162.054L144.351 162.022L144.368 162L144.608 161.677C144.592 161.676 144.576 161.676 144.561 161.674C144.48 161.665 144.396 161.629 144.323 161.545C144.249 161.461 144.193 161.334 144.162 161.163C144.122 160.934 144.132 160.739 144.171 160.579C144.138 160.587 144.105 160.592 144.073 160.594C143.975 160.599 143.873 160.573 143.784 160.486C143.693 160.398 143.625 160.255 143.589 160.053L143.762 159.97Z" fill="#95785C"/>
<path fill-rule="evenodd" clip-rule="evenodd" d="M147.413 159.516C147.485 159.506 147.585 159.514 147.649 159.649C147.708 159.774 147.712 159.96 147.689 160.186L147.684 160.239L147.659 160.273C147.51 160.483 147.476 160.631 147.475 160.724C147.474 160.818 147.506 160.905 147.563 160.998C147.59 161.043 147.62 161.084 147.65 161.124C147.677 161.161 147.71 161.206 147.732 161.249C147.744 161.27 147.758 161.303 147.766 161.344C147.775 161.391 147.775 161.448 147.756 161.501C147.739 161.548 147.714 161.575 147.693 161.592C147.672 161.609 147.648 161.622 147.622 161.633C147.539 161.667 147.443 161.727 147.34 161.793C147.24 161.857 147.133 161.925 147.036 161.965C146.944 162.003 146.836 162.025 146.749 161.954C146.648 161.872 146.609 161.701 146.609 161.489C146.609 161.149 146.548 160.962 146.511 160.757C146.492 160.656 146.479 160.543 146.497 160.418C146.513 160.308 146.55 160.205 146.61 160.099C146.615 159.991 146.632 159.853 146.677 159.741C146.706 159.67 146.747 159.605 146.806 159.571C146.864 159.537 146.929 159.541 146.998 159.579L147.015 159.587C147.058 159.602 147.113 159.597 147.18 159.58C147.218 159.57 147.255 159.557 147.295 159.545C147.333 159.533 147.374 159.522 147.413 159.516ZM147.427 159.81C147.399 159.814 147.366 159.823 147.328 159.835C147.292 159.846 147.25 159.86 147.209 159.871C147.138 159.89 147.054 159.904 146.975 159.874L146.941 159.859C146.901 159.837 146.878 159.842 146.866 159.849C146.853 159.857 146.84 159.873 146.828 159.903C146.801 159.97 146.789 160.077 146.789 160.161V160.222L146.763 160.266C146.701 160.366 146.68 160.435 146.672 160.486C146.665 160.536 146.668 160.589 146.684 160.672C146.714 160.837 146.789 161.092 146.789 161.489C146.789 161.647 146.817 161.679 146.829 161.69C146.854 161.71 146.905 161.714 146.992 161.678C147.076 161.644 147.172 161.584 147.275 161.518C147.362 161.462 147.456 161.403 147.543 161.363C147.54 161.359 147.538 161.355 147.535 161.351C147.506 161.312 147.469 161.263 147.435 161.206C147.368 161.096 147.293 160.934 147.295 160.719C147.297 160.515 147.367 160.307 147.516 160.088C147.53 159.909 147.515 159.847 147.507 159.83C147.503 159.822 147.49 159.802 147.427 159.81Z" fill="#95785C"/>
<path d="M144.616 159.047C144.586 159.142 144.582 159.202 144.585 159.238C144.587 159.269 144.595 159.295 144.614 159.321C144.634 159.35 144.665 159.377 144.708 159.402C144.75 159.427 144.797 159.446 144.847 159.464C144.895 159.481 144.949 159.499 144.993 159.519C145.035 159.537 145.087 159.564 145.124 159.613C145.144 159.639 145.165 159.679 145.175 159.734C145.185 159.791 145.18 159.846 145.168 159.892C145.152 159.955 145.122 160.014 145.083 160.072L145.042 160.129C144.961 160.235 144.93 160.324 144.92 160.39C144.91 160.452 144.917 160.514 144.94 160.578C144.989 160.718 145.103 160.842 145.202 160.911L145.166 161.047L145.131 161.183C145.019 161.104 144.862 160.948 144.784 160.726C144.743 160.61 144.722 160.47 144.745 160.318C144.768 160.169 144.83 160.029 144.929 159.898L144.963 159.851C144.971 159.84 144.977 159.83 144.982 159.821C144.972 159.816 144.961 159.81 144.946 159.803C144.907 159.786 144.862 159.772 144.808 159.752C144.757 159.733 144.7 159.711 144.647 159.68C144.595 159.649 144.54 159.607 144.495 159.544C144.449 159.478 144.414 159.389 144.406 159.272C144.398 159.16 144.416 159.041 144.454 158.915L144.616 159.047Z" fill="#95785C"/>
<path fill-rule="evenodd" clip-rule="evenodd" d="M146.171 155.092C146.269 154.966 146.395 154.933 146.543 155.002C146.683 155.067 146.786 155.171 146.858 155.305C146.896 155.375 146.924 155.452 146.943 155.53C146.961 155.49 146.979 155.452 146.998 155.416C147.074 155.273 147.171 155.153 147.29 155.123C147.411 155.091 147.536 155.159 147.658 155.326C147.804 155.525 147.889 155.718 147.918 155.899C148.044 155.757 148.247 155.648 148.52 155.737C148.722 155.803 148.837 155.966 148.881 156.174C148.904 156.285 148.903 156.397 148.891 156.496C148.983 156.535 149.059 156.663 149.121 156.842C149.293 157.333 149.316 157.735 149.274 158.028C149.406 157.929 149.546 157.843 149.667 157.807C149.721 157.79 149.776 157.782 149.826 157.79C149.877 157.797 149.929 157.822 149.972 157.879C150.066 158.003 150.07 158.21 150.031 158.431C149.954 158.873 149.822 159.14 149.679 159.287C149.615 159.352 149.55 159.391 149.489 159.413C149.552 159.567 149.609 159.746 149.632 159.92C149.65 160.058 149.65 160.215 149.598 160.349C149.545 160.486 149.452 160.568 149.328 160.602C149.093 160.666 148.933 160.578 148.843 160.388C148.798 160.293 148.777 160.184 148.769 160.08C148.629 160.159 148.459 160.236 148.309 160.264C148.211 160.282 148.109 160.281 148.028 160.231C147.986 160.205 147.945 160.164 147.915 160.098C147.885 160.032 147.871 159.952 147.871 159.866C147.871 159.729 147.861 159.601 147.852 159.464C147.843 159.333 147.836 159.191 147.849 159.051C147.863 158.905 147.898 158.764 147.969 158.629C148.038 158.496 148.14 158.375 148.281 158.258L148.362 158.522C148.233 158.628 148.154 158.728 148.106 158.821C148.058 158.911 148.037 159.001 148.028 159.095C148.018 159.195 148.023 159.303 148.031 159.434C148.039 159.56 148.051 159.709 148.051 159.866C148.051 159.898 148.056 159.913 148.06 159.922C148.064 159.931 148.073 159.943 148.091 159.955C148.132 159.98 148.199 159.987 148.289 159.971C148.466 159.938 148.682 159.825 148.829 159.729L148.984 159.628L148.951 159.895C148.939 159.995 148.945 160.122 148.986 160.207C149.021 160.281 149.101 160.365 149.299 160.311C149.392 160.286 149.429 160.233 149.445 160.192C149.462 160.148 149.468 160.081 149.455 159.982C149.428 159.781 149.332 159.538 149.245 159.372L149.075 159.047L149.331 159.131C149.384 159.149 149.482 159.14 149.584 159.037C149.683 158.935 149.791 158.734 149.858 158.35C149.891 158.159 149.864 158.116 149.859 158.108C149.852 158.1 149.838 158.088 149.809 158.084C149.781 158.079 149.744 158.083 149.7 158.096C149.517 158.152 149.267 158.348 149.088 158.518L148.989 158.273C149.065 158.18 149.236 157.765 148.965 156.988C148.898 156.797 148.849 156.777 148.829 156.778C148.8 156.78 148.752 156.822 148.691 156.953C148.572 157.206 148.468 157.648 148.408 157.988L148.232 157.948C148.232 157.789 148.215 157.524 148.164 157.258C148.112 156.99 148.03 156.741 147.907 156.59C147.887 156.565 147.875 156.565 147.868 156.567C147.858 156.569 147.84 156.58 147.815 156.619C147.764 156.699 147.708 156.852 147.654 157.061C147.547 157.473 147.463 158.029 147.419 158.418L147.24 158.381C147.255 158.016 147.249 157.521 147.192 157.196C147.161 157.026 147.125 156.948 147.096 156.925C147.08 156.911 147.035 156.894 146.937 157.028C146.743 157.292 146.713 157.547 146.738 157.754C146.764 157.974 146.857 158.168 146.937 158.277L146.821 158.504C146.721 158.367 146.597 158.118 146.561 157.81C146.522 157.487 146.582 157.127 146.821 156.802C146.939 156.641 147.063 156.568 147.177 156.661C147.278 156.743 147.332 156.932 147.365 157.113C147.378 157.187 147.388 157.268 147.397 157.352C147.425 157.21 147.455 157.072 147.488 156.946C147.526 156.801 147.568 156.663 147.616 156.55L147.572 156.332C147.652 156.288 147.725 156.2 147.744 156.098C147.759 156.013 147.751 155.836 147.543 155.552C147.449 155.424 147.375 155.399 147.318 155.414C147.257 155.43 147.195 155.495 147.134 155.61C147.072 155.727 147.018 155.882 146.974 156.044C146.956 156.239 146.911 156.419 146.867 156.545L146.701 156.436C146.723 156.298 146.755 156.133 146.798 155.968C146.802 155.907 146.803 155.845 146.799 155.786C146.791 155.681 146.768 155.583 146.723 155.5C146.678 155.417 146.607 155.339 146.494 155.286C146.39 155.237 146.326 155.268 146.282 155.324C146.234 155.386 146.195 155.501 146.168 155.665C146.139 155.847 146.13 156.066 146.133 156.278C146.166 156.411 146.169 156.544 146.156 156.648L146.148 156.646C146.151 156.68 146.154 156.713 146.157 156.745L145.979 156.79C145.966 156.661 145.957 156.508 145.953 156.347C145.943 156.317 145.931 156.288 145.914 156.26C145.848 156.146 145.711 156.029 145.436 156.029C145.35 156.029 145.292 156.041 145.254 156.056C145.216 156.072 145.205 156.09 145.203 156.094C145.203 156.094 145.2 156.098 145.2 156.117C145.2 156.142 145.203 156.172 145.209 156.222C145.215 156.264 145.223 156.326 145.222 156.388C145.221 156.455 145.211 156.533 145.175 156.601C145.14 156.666 145.091 156.707 145.032 156.731C144.974 156.755 144.899 156.767 144.805 156.767C144.671 156.767 144.618 156.82 144.597 156.859C144.578 156.897 144.568 156.963 144.586 157.082C144.623 157.322 144.755 157.632 144.873 157.85L144.805 157.948L144.738 158.046C144.616 157.821 144.459 157.466 144.411 157.153C144.387 156.996 144.386 156.813 144.459 156.67C144.53 156.53 144.651 156.472 144.805 156.472C144.892 156.472 144.95 156.461 144.988 156.445C145.025 156.429 145.037 156.412 145.039 156.408C145.039 156.408 145.042 156.404 145.042 156.384C145.042 156.359 145.039 156.329 145.033 156.28C145.027 156.237 145.019 156.175 145.02 156.113C145.02 156.047 145.031 155.969 145.067 155.901C145.102 155.835 145.151 155.795 145.21 155.771C145.268 155.746 145.343 155.734 145.436 155.734C145.673 155.734 145.842 155.813 145.959 155.939C145.965 155.818 145.976 155.7 145.994 155.59C146.025 155.398 146.078 155.212 146.171 155.092ZM148.484 156.026C148.159 155.92 147.985 156.162 147.946 156.259L147.909 156.218C147.904 156.237 147.9 156.255 147.894 156.273C147.937 156.28 147.978 156.309 148.015 156.354C148.181 156.558 148.279 156.874 148.336 157.169C148.345 157.22 148.354 157.272 148.361 157.322C148.414 157.119 148.478 156.923 148.548 156.773C148.588 156.688 148.636 156.606 148.693 156.55C148.715 156.474 148.729 156.363 148.71 156.269C148.693 156.186 148.642 156.078 148.484 156.026Z" fill="#95785C"/>
<path d="M146.378 157.194C146.29 157.267 146.254 157.445 146.274 157.724C146.285 157.871 146.311 158.027 146.341 158.168C146.404 158.287 146.428 158.428 146.428 158.538L146.257 158.604C146.234 158.527 146.209 158.433 146.185 158.329C146.182 158.325 146.179 158.32 146.175 158.316C146.12 158.248 146.013 158.186 145.812 158.241C145.719 158.266 145.668 158.32 145.638 158.377C145.608 158.435 145.592 158.511 145.59 158.607C145.585 158.805 145.639 159.042 145.695 159.203L145.538 159.349C145.474 159.166 145.403 158.871 145.41 158.595C145.413 158.453 145.438 158.306 145.501 158.185C145.564 158.064 145.659 157.984 145.782 157.95C145.915 157.914 146.026 157.918 146.116 157.954C146.107 157.889 146.1 157.824 146.095 157.759C146.073 157.457 146.098 157.094 146.298 156.93L146.378 157.194Z" fill="#95785C"/>
<path d="M88.5 43.9996C84 38.4996 70.5 36.4996 68.5 52.4996C72 47.4996 79 42.4996 88.5 43.9996Z" fill="#DEB789"/>
<path d="M89.5 45.0003C91.6667 43.5003 96.4 43.8003 98 57.0003C95.1667 53.3336 89.5 45.8003 89.5 45.0003Z" fill="#DEB789"/>
</g>
<defs>
<clipPath id="clip0_193_5650">
<rect width="164" height="164" rx="82" fill="white"/>
</clipPath>
</defs>
</svg>
