<svg width="164" height="164" viewBox="0 0 164 164" fill="none" xmlns="http://www.w3.org/2000/svg">
<g clip-path="url(#clip0_193_5602)">
<rect width="164" height="164" rx="82" fill="#9987DE"/>
<path d="M96.0004 30.8124C93.3338 27.479 81.7004 21.4124 68.5004 27.8124C52.0004 35.8124 45.6491 49.4697 44.0004 58.8124C41.0004 75.8124 35.9999 74.7323 35.9999 88.8124C35.9999 99.8124 41.0004 107.812 41.0004 114.312C41.0004 121.247 32.1995 128.69 32.3576 138.532C25.9387 141.278 19.551 144.05 18.5 144.5C15.7 145.7 13 159.5 13 163.813H150C152 158.213 147.5 147 144.5 143L113.5 131.312C121 128.312 131.1 99.3124 127.5 81.3124C123 58.8124 119 45.3124 111 36.8124C104.6 30.0124 98 30.3124 95.5 31.3124" stroke="black" stroke-width="3"/>
<path d="M39 92.5L52 64L104.5 52.5L124.5 86L117.5 122L109.5 139.5H52L39 92.5Z" fill="#362418"/>
<path d="M47 104.5C40.2 86.5 49.8333 75.3333 55.5 72L53 87.5C49 93.5 55.5 117 60.5 129C65.5 141 58 146 53 153C49 158.6 49.3333 163 50 164.5H46C42.5 157 49.5 150.5 53 144C56.5 137.5 55.5 127 47 104.5Z" fill="#432C1D"/>
<path fill-rule="evenodd" clip-rule="evenodd" d="M82.25 27.2002C98.9566 27.2002 112.5 40.7436 112.5 57.4502L111.511 65.8604C116.967 63.2558 125.114 62.2823 121.777 76C119.321 86.0995 113.154 89.4777 107.79 90.0752C106.795 97.8137 102.395 104.424 96.1797 108.422L95.5723 108.801L95.6396 109.786C96.0245 114.852 97.1181 121.867 98.8057 123.981L143.5 143C146.5 147 152 157.4 150 163H13C14.1667 157.167 17.2 144.2 20 143C22.6815 141.851 50.3381 130.064 64.6787 123.798C65.5078 121.89 66.5237 118.979 67.2412 115.729L67.3809 115.075C75.5547 115.576 90.2685 116.364 94.8584 109.217C91.1306 111.31 86.8349 112.5 82.2773 112.5C77.237 112.5 72.5171 111.045 68.5312 108.521L68.1475 108.273L67.5811 107.891C61.7865 103.852 57.7167 97.4801 56.7646 90.0752C51.4009 89.4777 45.235 86.0995 42.7783 76C39.4533 62.3305 47.5308 63.2483 52.9863 65.832L52 57.4502C52 40.7436 65.5434 27.2002 82.25 27.2002ZM79.7568 100.438C80.5559 100.881 81.8956 101.406 83.3604 101.56C84.8265 101.714 86.4803 101.5 87.8203 100.384L87.1797 99.6162C86.1198 100.499 84.7736 100.703 83.4648 100.565C82.3185 100.445 81.2485 100.066 80.5293 99.7119L80.2432 99.5625L79.7568 100.438ZM91.4619 92.2012C89.7965 94.7917 86.8015 95.6881 83.5938 95.6963L82.9941 95.6875C82.9847 95.6872 82.9753 95.6859 82.9658 95.6855C82.1465 95.659 81.3273 95.5786 80.5303 95.46C78.6087 95.1736 76.8165 94.667 75.4658 94.1611L75.0684 94.0078L74.6973 94.9355C76.6903 95.7327 79.8159 96.5905 82.9668 96.6875L83.5967 96.6963C85.1127 96.6924 86.6431 96.4978 88.0439 96.0078C89.7391 95.4151 91.2445 94.3898 92.3037 92.7422L91.4619 92.2012ZM81.501 75.4785C81.4183 77.3808 81.1687 80.2434 80.9395 82.7031C80.8603 83.5522 80.7842 84.3518 80.7178 85.0449L80.7168 85.0488L80.7119 85.1074C80.6845 85.3935 80.659 85.6614 80.6357 85.9062C80.557 86.7336 80.5001 87.3441 80.5 87.5C80.4999 87.7247 80.5935 87.9265 80.6934 88.0791C80.7989 88.2403 80.9425 88.3945 81.1084 88.5332C81.4411 88.8112 81.9023 89.0594 82.4463 89.1895C83.5608 89.4557 84.9867 89.2204 86.3535 87.8535L85.6465 87.1465C84.5136 88.2793 83.4393 88.3985 82.6787 88.2168C82.2852 88.1227 81.9641 87.9455 81.75 87.7666C81.6427 87.6769 81.5711 87.5935 81.5303 87.5312C81.5136 87.5057 81.5051 87.488 81.501 87.4785L81.502 87.46C81.5033 87.4348 81.5049 87.4019 81.5078 87.3613C81.5137 87.2804 81.5227 87.1733 81.5342 87.042C81.5571 86.7791 81.5905 86.4244 81.6309 86C81.6557 85.7387 81.6832 85.4508 81.7129 85.1416C81.7794 84.4481 81.8563 83.6471 81.9355 82.7969C82.1645 80.3401 82.416 77.4524 82.5 75.5215L81.501 75.4785ZM71.5 68.7002C70.3954 68.7002 69.5 70.4911 69.5 72.7002C69.5 74.9093 70.3954 76.7002 71.5 76.7002C72.6046 76.7002 73.5 74.9093 73.5 72.7002C73.5 70.4911 72.6046 68.7002 71.5 68.7002ZM94.5 68.7002C93.3954 68.7002 92.5 70.4911 92.5 72.7002C92.5 74.9093 93.3954 76.7002 94.5 76.7002C95.6046 76.7002 96.5 74.9093 96.5 72.7002C96.5 70.4911 95.6046 68.7002 94.5 68.7002ZM117.693 69.1055C116.926 69.7026 115.754 70.7212 114.719 71.8496C114.201 72.4139 113.711 73.0137 113.321 73.6084C112.935 74.1977 112.628 74.8125 112.51 75.4023L112.391 76H116.5V75H113.688C113.804 74.7377 113.962 74.4552 114.157 74.1572C114.508 73.6219 114.961 73.0651 115.456 72.5254C116.446 71.4456 117.574 70.4641 118.307 69.8945L117.693 69.1055ZM46.6465 69.3535C47.2999 70.0069 48.2827 71.0879 49.0977 72.1963C49.5053 72.7506 49.8633 73.3018 50.1172 73.8018C50.2692 74.1011 50.3744 74.3641 50.4355 74.5869L47.918 75.0068L48.082 75.9932L51.5 75.4238V75C51.5 74.4803 51.2901 73.9027 51.0088 73.3486C50.7211 72.782 50.329 72.1824 49.9033 71.6035C49.0516 70.4452 48.0335 69.3264 47.3535 68.6465L46.6465 69.3535Z" fill="#EFC7AB"/>
<path d="M68.0869 109.983C68.0498 110.556 67.9966 111.129 67.9297 111.7L67.8193 112.554C67.8994 111.986 67.966 111.414 68.0186 110.842L68.0869 109.983Z" fill="#EFC7AB"/>
<path d="M82.2773 112.5C77.0742 112.5 72.2127 110.949 68.1475 108.273C68.1362 110.541 67.8325 112.874 67.3809 115.075V115.076C75.5547 115.577 90.2685 116.364 94.8584 109.217C91.1306 111.31 86.8349 112.5 82.2773 112.5Z" fill="#3F232D"/>
<path fill-rule="evenodd" clip-rule="evenodd" d="M114.719 71.8496C115.754 70.7212 116.926 69.7026 117.693 69.1055L118.307 69.8945C117.574 70.4641 116.446 71.4456 115.456 72.5254C114.961 73.0651 114.508 73.6219 114.157 74.1572C113.962 74.4552 113.804 74.7377 113.688 75H116.5V76H112.391L112.51 75.4023C112.628 74.8125 112.935 74.1977 113.321 73.6084C113.711 73.0137 114.201 72.4139 114.719 71.8496Z" fill="#B86B5E"/>
<path fill-rule="evenodd" clip-rule="evenodd" d="M49.0977 72.1963C48.2827 71.0879 47.2999 70.0069 46.6465 69.3535L47.3535 68.6465C48.0335 69.3264 49.0516 70.4452 49.9033 71.6035C50.329 72.1824 50.7211 72.782 51.0088 73.3486C51.2901 73.9027 51.5 74.4803 51.5 75V75.4238L48.082 75.9932L47.918 75.0068L50.4355 74.5869C50.3744 74.3641 50.2692 74.1011 50.1172 73.8018C49.8633 73.3018 49.5053 72.7506 49.0977 72.1963Z" fill="#B86B5E"/>
<path fill-rule="evenodd" clip-rule="evenodd" d="M83.3604 101.56C81.8956 101.406 80.5559 100.881 79.7568 100.438L80.2432 99.5625C80.9441 99.9519 82.1546 100.428 83.4648 100.565C84.7736 100.703 86.1198 100.499 87.1797 99.6162L87.8203 100.384C86.4803 101.5 84.8265 101.714 83.3604 101.56Z" fill="#B86B5E"/>
<path fill-rule="evenodd" clip-rule="evenodd" d="M114.719 71.8496C115.754 70.7212 116.926 69.7026 117.693 69.1055L118.307 69.8945C117.574 70.4641 116.446 71.4456 115.456 72.5254C114.961 73.0651 114.508 73.6219 114.157 74.1572C113.962 74.4552 113.804 74.7377 113.688 75H116.5V76H112.391L112.51 75.4023C112.628 74.8125 112.935 74.1977 113.321 73.6084C113.711 73.0137 114.201 72.4139 114.719 71.8496ZM49.0977 72.1963C48.2827 71.0879 47.2999 70.0069 46.6465 69.3535L47.3535 68.6465C48.0335 69.3264 49.0516 70.4452 49.9033 71.6035C50.329 72.1824 50.7211 72.782 51.0088 73.3486C51.2901 73.9027 51.5 74.4803 51.5 75V75.4238L48.082 75.9932L47.918 75.0068L50.4355 74.5869C50.3744 74.3641 50.2692 74.1011 50.1172 73.8018C49.8633 73.3018 49.5053 72.7506 49.0977 72.1963ZM83.3604 101.56C81.8956 101.406 80.5559 100.881 79.7568 100.438L80.2432 99.5625C80.9441 99.9519 82.1546 100.428 83.4648 100.565C84.7736 100.703 86.1198 100.499 87.1797 99.6162L87.8203 100.384C86.4803 101.5 84.8265 101.714 83.3604 101.56ZM80.9395 82.7031C81.1687 80.2434 81.4183 77.3808 81.501 75.4785L82.5 75.5215C82.416 77.4524 82.1645 80.3401 81.9355 82.7969C81.8563 83.6471 81.7794 84.4481 81.7129 85.1416C81.6832 85.4508 81.6557 85.7387 81.6309 86C81.5905 86.4244 81.5571 86.7791 81.5342 87.042C81.5227 87.1733 81.5137 87.2804 81.5078 87.3613C81.5049 87.4019 81.5033 87.4348 81.502 87.46L81.501 87.4785C81.5051 87.488 81.5136 87.5057 81.5303 87.5312C81.5711 87.5935 81.6427 87.6769 81.75 87.7666C81.9641 87.9455 82.2852 88.1227 82.6787 88.2168C83.4393 88.3985 84.5136 88.2793 85.6465 87.1465L86.3535 87.8535C84.9867 89.2204 83.5608 89.4557 82.4463 89.1895C81.9023 89.0594 81.4411 88.8112 81.1084 88.5332C80.9425 88.3945 80.7989 88.2403 80.6934 88.0791C80.5935 87.9265 80.4999 87.7247 80.5 87.5C80.5001 87.3441 80.557 86.7336 80.6357 85.9062C80.659 85.6614 80.6845 85.3935 80.7119 85.1074L80.7168 85.0488L80.7178 85.0449C80.7842 84.3518 80.8603 83.5522 80.9395 82.7031Z" fill="#B86B5E"/>
<path d="M81.501 75.4785C81.4183 77.3808 81.1687 80.2434 80.9395 82.7031C80.8603 83.5522 80.7842 84.3518 80.7178 85.0449L80.7168 85.0488L80.7119 85.1074C80.6845 85.3935 80.659 85.6614 80.6357 85.9062C80.557 86.7336 80.5001 87.3441 80.5 87.5C80.4999 87.7247 80.5935 87.9265 80.6934 88.0791C80.7989 88.2403 80.9425 88.3945 81.1084 88.5332C81.4411 88.8112 81.9023 89.0594 82.4463 89.1895C83.5608 89.4557 84.9867 89.2204 86.3535 87.8535L85.6465 87.1465C84.5136 88.2793 83.4393 88.3985 82.6787 88.2168C82.2852 88.1227 81.9641 87.9455 81.75 87.7666C81.6427 87.6769 81.5711 87.5935 81.5303 87.5312C81.5136 87.5057 81.5051 87.488 81.501 87.4785L81.502 87.46C81.5033 87.4348 81.5049 87.4019 81.5078 87.3613C81.5137 87.2804 81.5227 87.1733 81.5342 87.042C81.5571 86.7791 81.5905 86.4244 81.6309 86C81.6557 85.7387 81.6832 85.4508 81.7129 85.1416C81.7794 84.4481 81.8563 83.6471 81.9355 82.7969C82.1645 80.3401 82.416 77.4524 82.5 75.5215L81.501 75.4785Z" fill="#B86B5E"/>
<path d="M96.5 72.7002C96.5 74.9093 95.6046 76.7002 94.5 76.7002C93.3954 76.7002 92.5 74.9093 92.5 72.7002C92.5 70.4911 93.3954 68.7002 94.5 68.7002C95.6046 68.7002 96.5 70.4911 96.5 72.7002Z" fill="#3F232D"/>
<path d="M73.5 72.7002C73.5 74.9093 72.6046 76.7002 71.5 76.7002C70.3954 76.7002 69.5 74.9093 69.5 72.7002C69.5 70.4911 70.3954 68.7002 71.5 68.7002C72.6046 68.7002 73.5 70.4911 73.5 72.7002Z" fill="#3F232D"/>
<path fill-rule="evenodd" clip-rule="evenodd" d="M83.5967 96.6963C80.2374 96.7048 76.8231 95.7859 74.6973 94.9355L75.0684 94.0078C77.1092 94.8242 80.3947 95.7044 83.5938 95.6963C86.8015 95.6881 89.7965 94.7917 91.4619 92.2012L92.3037 92.7422C90.3691 95.7516 86.9472 96.6878 83.5967 96.6963Z" fill="#B86B5E"/>
<path d="M97.5 157C104.807 152.129 114.833 138.667 119 132.5C126.5 135.333 140.9 141.1 144.5 143.5C148.1 145.9 151 156.5 150.5 163.5H13C13 152.7 17.8333 144.667 20 142.5L46.5 131C47.3333 132.667 51.5 141.2 55.5 150C60.5 161 87 164 97.5 157Z" fill="#D2CDC8"/>
<path d="M150.555 162C150.552 162.515 150.535 163.016 150.5 163.5H13C13 162.994 13.0137 162.494 13.0342 162H150.555Z" fill="#2D2B25"/>
<path d="M49.5 131C50.3333 132.667 52.5 139.2 56.5 148C61.5 159 86 161.5 95.5 156C103.1 151.6 113.333 138.167 117.5 132C117.957 132.173 118.485 132.303 119 132.5C121.452 133.426 124.641 134.667 127.949 136H116.688C116.24 136.643 115.762 137.312 115.26 138H132.823C136.245 139.432 139.465 140.85 141.781 142H112.224C111.7 142.664 111.163 143.332 110.615 144H145.119C146.05 144.878 146.919 146.285 147.679 148H107.197C106.588 148.682 105.973 149.35 105.358 150H148.468C148.909 151.256 149.297 152.61 149.612 154H101.286C100.47 154.732 99.6695 155.405 98.8926 156H150.012C150.247 157.346 150.414 158.697 150.496 160H89.6523C84.5546 161.031 78.516 161.008 72.9033 160H13.1729C13.308 158.605 13.5154 157.269 13.7822 156H61.3936C60.3646 155.39 59.4272 154.722 58.5986 154H14.2637C14.6522 152.558 15.1068 151.22 15.5938 150H55.5C54.5879 147.993 53.6656 146.001 52.7773 144.101C53.3689 145.367 53.9744 146.675 54.583 148H16.4658C17.2466 146.357 18.0552 145.007 18.7715 144H52.7305C52.4126 143.32 52.0995 142.652 51.792 142H21.1523L30.3691 138H49.8906C49.5534 137.295 49.2331 136.626 48.9316 136H34.9785L46.5 131C46.608 131.216 46.7702 131.548 46.9824 131.98L49.5 131Z" fill="#2D2B25"/>
<path d="M88.0167 64.5197C87.2758 64.4648 86.594 63.6123 87.0235 62.8419C87.4529 62.0714 90.9048 60.7225 95.35 61.0514C97.8417 61.2357 99.6773 62.3798 100.809 63.3497C101.073 63.5757 100.762 64.0381 100.442 63.9217C99.5497 63.5971 97.204 63.0829 95.5861 62.9632C91.8818 62.6891 88.7575 64.5746 88.0167 64.5197Z" fill="#602920"/>
<path d="M75.9826 64.5191C76.7235 64.4642 77.4053 63.6117 76.9758 62.8412C76.5464 62.0708 73.0945 60.7218 68.6493 61.0507C66.1576 61.2351 64.322 62.3791 63.1899 63.349C62.9262 63.575 63.2373 64.0375 63.5574 63.921C64.4496 63.5964 66.7953 63.0823 68.4132 62.9626C72.1175 62.6885 75.2418 64.5739 75.9826 64.5191Z" fill="#602920"/>
<path d="M112.86 85.5566C114.381 85.4052 115.915 85.5586 117.373 86.0059L117.695 86.1094C117.869 86.1685 118.042 86.2322 118.214 86.2998L118.725 86.5156C120.592 87.3572 122.199 88.6808 123.381 90.3477L123.611 90.6855C124.736 92.3974 125.382 94.3763 125.485 96.417L125.499 96.8262C125.53 98.874 125.013 100.89 124.006 102.668L123.798 103.021C122.725 104.766 121.208 106.191 119.404 107.151L119.04 107.337C117.199 108.235 115.154 108.623 113.116 108.466L112.709 108.428C110.674 108.198 108.74 107.428 107.104 106.203L106.781 105.952C105.584 104.986 104.596 103.795 103.873 102.451C103.947 102.343 104.023 102.236 104.096 102.127C104.718 103.329 105.554 104.411 106.567 105.316L106.82 105.535C107.441 106.057 108.119 106.512 108.843 106.89L109.156 107.047C110.953 107.913 112.95 108.282 114.938 108.114C116.925 107.947 118.832 107.249 120.458 106.094C122.084 104.939 123.371 103.368 124.185 101.547C124.998 99.7254 125.308 97.7192 125.082 95.7373C124.856 93.7553 124.103 91.8702 122.9 90.2783C121.698 88.6865 120.092 87.4461 118.247 86.6865C116.557 85.9906 114.724 85.7223 112.91 85.9004L112.86 85.5566ZM47.1631 86.1592C48.7571 85.595 50.4559 85.3902 52.1387 85.5576L52.0898 85.9004C50.7659 85.7704 49.4319 85.8781 48.1504 86.2168L47.8633 86.2969C47.5088 86.4008 47.1585 86.5218 46.8145 86.6611L46.4717 86.8066C44.5537 87.6587 42.9152 89.0348 41.7441 90.7764C40.5731 92.5181 39.9168 94.5555 39.8516 96.6533C39.7904 98.62 40.2511 100.565 41.1826 102.293L41.375 102.636C42.3691 104.334 43.7932 105.736 45.501 106.704L45.8467 106.892C47.7081 107.861 49.8054 108.286 51.8975 108.117C53.8585 107.959 55.7403 107.285 57.3535 106.167L57.6729 105.938C58.6902 105.178 59.5655 104.254 60.2656 103.209L60.5547 102.754C60.6067 102.667 60.6573 102.58 60.707 102.492C60.7793 102.596 60.8531 102.7 60.9268 102.803C60.2042 104.039 59.2559 105.134 58.125 106.026L57.8799 106.215C56.1459 107.509 54.0817 108.289 51.9248 108.463C49.9026 108.626 47.8756 108.251 46.0488 107.38L45.6865 107.199C43.7674 106.199 42.1696 104.678 41.0762 102.811C40.0512 101.06 39.5084 99.0717 39.5 97.0479L39.5059 96.6426C39.569 94.6149 40.167 92.6422 41.2363 90.9238L41.4561 90.583C42.588 88.8994 44.1443 87.5475 45.9639 86.6611L46.3311 86.4902C46.4678 86.4295 46.6055 86.3716 46.7441 86.3164L47.1631 86.1592Z" fill="#E7B361" stroke="#E3A64F"/>
<path d="M88.5 43.9999L89.5 42.9999L96.0004 29.9999C93.3338 26.6665 81.7004 20.5999 68.5004 26.9999C52.0004 34.9999 45.6491 48.6572 44.0004 57.9999C41.0004 74.9999 35.9999 73.9198 35.9999 87.9999C35.9999 98.9999 41.0004 107 41.0004 113.5C41.0004 121.406 29.5623 129.971 32.9997 142C38.1435 160 35.5001 156 37.0001 164.5H47.0004C44.2004 159.3 46.3333 155 47.5 153C52.5001 147.833 61.7 131.1 54.5 113.5C45.5 91.4999 47.5 84.9999 50.5 81.4999C53.5 77.9999 59 78.4999 66 57.9999C70.6335 44.4304 82.6667 42.6665 88.5 43.9999Z" fill="#5A3824"/>
<path d="M109 75C108.2 73.8 107.333 67.1667 107 64C111 65 118.1 67.3 114.5 68.5C110 70 110 76.5 109 75Z" fill="#301F14"/>
<path d="M89.5 45.0001V43.0001L95.5 30.5001C98 29.5001 104.6 29.2001 111 36.0001C119 44.5001 123 58.0001 127.5 80.5001C131.1 98.5001 121 127.5 113.5 130.5L107 127.5C108.667 126.333 117.5 121.2 119.5 110C122 96.0001 121.5 84.5001 119.5 79.5001C117.5 74.5001 111 67.5001 107 66.5001C104.202 65.8005 93 51.1668 89.5 45.0001Z" fill="#533523"/>
<path d="M47.7108 107.051C41.0777 89.9661 44.7845 86.1695 47.7108 83.322L51.6126 80C47.7108 85.6949 55.5143 118.915 60.3916 130.305C65.2688 141.695 57.9529 146.441 53.0757 153.085C49.1739 158.4 49.4991 162.576 50.1494 164H46.2476C42.8336 156.881 49.6617 150.712 53.0757 144.542C56.4898 138.373 56.002 128.407 47.7108 107.051Z" fill="#432C1D"/>
</g>
<defs>
<clipPath id="clip0_193_5602">
<rect width="164" height="164" rx="82" fill="white"/>
</clipPath>
</defs>
</svg>
